<!DOCTYPE svg PUBLIC "-//W3C//DTD SVG 20010904//EN" "http://www.w3.org/TR/2001/REC-SVG-20010904/DTD/svg10.dtd">
<svg version="1.0" xmlns="http://www.w3.org/2000/svg" width="683px" height="1024px" viewBox="0 0 6830 10240" preserveAspectRatio="xMidYMid meet">
<g id="layer1" fill="#1d1d1d" stroke="none">
 <path d="M0 8446 l0 -1793 26 -47 c14 -25 31 -46 37 -46 6 0 32 -18 58 -40 26 -22 52 -40 58 -40 5 0 -3 -14 -19 -32 -27 -30 -28 -33 -14 -50 9 -9 19 -16 23 -16 15 4 51 -15 51 -26 0 -8 7 -19 15 -26 21 -17 4 -35 -36 -38 -17 -1 -39 -6 -47 -11 -12 -7 -25 -2 -46 15 -16 14 -35 23 -42 20 -7 -3 -18 1 -24 9 -10 12 -13 21 -19 55 -4 18 -21 -31 -21 -58 0 -49 15 -69 57 -77 21 -3 56 -17 79 -30 24 -14 49 -22 62 -19 16 5 24 -1 36 -25 9 -17 24 -32 34 -33 19 -1 22 -2 77 -12 28 -5 44 -14 50 -29 6 -13 17 -21 28 -19 9 2 17 -1 17 -5 0 -12 -54 -43 -73 -43 -22 0 -57 -48 -53 -74 4 -29 69 -36 155 -17 50 10 79 25 127 62 62 48 63 49 151 53 79 4 91 2 115 -17 15 -12 28 -35 30 -50 6 -42 28 -51 58 -23 26 24 87 45 108 38 6 -2 12 -14 12 -27 0 -20 -6 -25 -45 -31 -45 -6 -57 -15 -62 -44 -3 -21 26 -62 40 -57 25 9 127 -52 127 -76 0 -10 -64 -27 -105 -27 -34 0 -47 -6 -75 -35 -54 -56 -48 -113 12 -101 15 3 30 1 33 -4 3 -6 17 -10 30 -10 32 0 71 -42 106 -115 27 -56 29 -67 29 -185 0 -139 -15 -214 -40 -204 -30 11 -35 9 -35 -21 0 -23 5 -31 22 -33 26 -4 30 -37 12 -107 -5 -22 -11 -53 -13 -70 -11 -89 -25 -167 -66 -365 -6 -30 -13 -67 -15 -82 -1 -14 -5 -31 -8 -35 -3 -5 -9 -36 -12 -69 -4 -32 -10 -86 -15 -119 -14 -92 -4 -652 14 -766 9 -57 15 -168 15 -270 0 -96 5 -210 10 -254 5 -44 13 -105 16 -135 4 -30 13 -73 20 -95 7 -22 25 -76 39 -120 23 -74 51 -138 73 -168 5 -7 26 -50 47 -97 21 -47 47 -103 58 -125 32 -62 57 -146 58 -186 0 -20 8 -47 19 -60 22 -29 62 -109 98 -198 14 -36 46 -95 69 -132 24 -37 44 -69 44 -72 0 -2 22 -42 48 -88 76 -132 197 -311 262 -389 33 -40 60 -80 60 -89 0 -10 24 -38 53 -62 28 -24 78 -68 110 -98 31 -30 106 -87 165 -127 59 -41 139 -95 178 -122 40 -27 116 -68 170 -92 55 -24 149 -67 209 -96 114 -54 175 -74 285 -95 36 -7 70 -19 76 -28 9 -11 52 -18 189 -27 177 -12 221 -11 348 1 49 5 71 12 79 25 9 14 17 16 39 8 19 -6 34 -6 48 2 13 7 28 7 39 2 36 -19 123 -12 169 14 36 19 50 22 81 16 42 -9 90 4 121 32 11 10 48 24 83 31 92 19 132 37 166 73 17 18 37 32 46 32 8 0 20 9 26 21 7 11 36 32 66 45 30 13 53 28 49 33 -3 5 21 31 52 57 32 27 72 61 88 76 17 15 53 47 82 70 28 24 62 57 75 73 13 16 47 53 77 83 51 50 81 89 144 190 16 25 47 70 71 101 61 80 103 159 111 209 4 23 17 55 29 70 13 15 37 61 56 102 18 41 43 98 56 125 13 28 25 62 28 77 2 15 11 40 20 55 8 16 22 77 30 138 9 60 24 127 35 150 25 57 71 184 98 270 8 28 19 54 24 59 5 6 9 24 9 40 0 27 44 201 85 336 24 80 52 262 61 400 10 166 -39 756 -77 920 -35 151 -82 314 -105 365 -23 52 -54 201 -61 295 -4 49 0 64 33 125 72 136 85 167 105 252 39 165 16 396 -62 628 -35 103 -50 125 -73 106 -8 -7 -24 -10 -35 -6 -41 13 -65 79 -85 235 -11 77 -21 103 -54 133 -30 27 -36 4 -12 -45 11 -24 22 -57 25 -73 2 -17 5 -37 7 -45 2 -10 -4 -14 -17 -12 -56 9 -59 8 -67 -32 -5 -22 -13 -45 -19 -52 -18 -22 -12 -95 9 -116 16 -16 16 -71 0 -66 -7 3 -14 15 -16 29 -5 40 -34 68 -77 75 -22 3 -43 7 -46 7 -9 3 -11 -5 -6 -23 15 -54 27 -115 27 -141 0 -28 -2 -30 -16 -18 -16 13 -37 54 -39 74 -1 16 -84 125 -95 125 -11 0 -61 97 -80 154 -7 22 -21 53 -31 70 -10 17 -25 50 -33 72 -7 22 -23 61 -35 87 -33 72 -36 102 -15 150 46 107 94 148 223 192 110 38 321 215 321 270 0 12 10 35 22 51 12 15 24 39 26 53 2 14 11 35 21 46 10 11 28 37 40 57 12 20 37 49 55 65 98 82 160 129 198 148 31 15 45 30 52 52 4 17 27 49 50 71 41 40 364 259 468 317 29 16 76 43 103 59 69 40 164 93 203 113 l32 17 0 1123 0 1123 -3415 0 -3415 0 0 -1794z m2825 1354 c161 -16 197 -28 425 -144 246 -125 277 -140 380 -186 147 -67 251 -124 416 -227 10 -7 62 -37 114 -67 52 -31 120 -72 151 -93 102 -69 402 -320 492 -411 75 -77 87 -94 87 -123 0 -27 -8 -39 -35 -59 -19 -14 -58 -59 -87 -100 -29 -41 -57 -79 -64 -85 -6 -5 -27 -37 -47 -71 -19 -33 -58 -83 -87 -111 -46 -45 -52 -55 -55 -97 -3 -51 -19 -78 -44 -74 -12 2 -16 -6 -16 -37 0 -46 -11 -69 -30 -61 -7 2 -27 -15 -46 -40 -18 -24 -36 -44 -40 -44 -5 0 -16 -17 -25 -37 -10 -21 -28 -54 -40 -74 -27 -43 -46 -107 -34 -114 9 -5 7 -20 -7 -80 -4 -16 -6 -38 -4 -47 1 -9 -4 -36 -12 -60 -15 -43 -22 -77 -34 -153 -3 -22 -12 -51 -19 -66 -8 -16 -11 -46 -7 -86 6 -70 -3 -137 -18 -127 -15 9 -51 -27 -40 -40 11 -14 26 -95 23 -124 -2 -13 2 -30 8 -37 6 -7 17 -46 25 -86 7 -41 21 -91 30 -112 29 -70 49 -367 26 -390 -7 -7 -7 -17 0 -29 5 -10 7 -18 3 -18 -3 0 -2 -6 4 -12 14 -17 24 -87 15 -101 -4 -7 -9 -30 -10 -52 -5 -99 -13 -107 -74 -79 -37 16 -42 16 -75 1 l-35 -17 -25 30 c-14 16 -30 27 -35 24 -5 -3 -21 4 -35 15 -15 11 -30 19 -34 16 -4 -2 -15 4 -25 15 -10 11 -24 20 -32 20 -7 0 -22 9 -33 20 -11 11 -17 20 -14 20 4 0 1 7 -6 15 -14 16 -34 10 -24 -7 4 -6 2 -8 -3 -5 -14 9 -28 -10 -37 -47 -8 -33 13 -71 44 -81 21 -7 28 -27 8 -22 -7 1 -12 -4 -11 -10 3 -13 -2 -15 -52 -18 -17 -1 -29 -6 -28 -13 4 -17 -8 -15 -22 4 -9 13 -16 14 -31 6 -10 -6 -27 -13 -38 -16 -15 -5 -16 -9 -6 -21 10 -12 9 -15 -6 -17 -11 0 -25 -2 -31 -2 -7 -1 -12 -6 -10 -11 1 -5 8 -9 15 -7 6 2 12 -2 12 -7 0 -5 24 -22 53 -36 111 -56 190 -124 276 -239 69 -90 135 -154 145 -138 2 4 1 14 -5 22 -17 28 -11 50 14 47 13 -1 21 3 20 11 -2 6 2 12 7 12 6 0 10 -8 8 -17 -2 -13 3 -17 19 -15 30 4 74 -20 151 -84 36 -30 71 -54 78 -54 7 0 14 -4 16 -9 2 -5 45 -56 96 -113 90 -102 182 -234 182 -262 0 -7 7 -19 16 -27 19 -16 74 -132 74 -157 0 -10 3 -22 8 -26 4 -4 7 -11 8 -14 0 -4 5 -25 11 -47 16 -57 34 -125 39 -149 7 -27 7 -30 28 -97 24 -80 27 -96 30 -174 2 -38 6 -81 9 -95 19 -76 33 -395 18 -404 -5 -4 -8 -28 -5 -55 2 -28 0 -52 -6 -56 -7 -4 -7 -12 0 -24 5 -10 7 -20 5 -22 -2 -3 -9 -36 -15 -74 -7 -41 -17 -73 -27 -80 -15 -11 -15 -14 -1 -34 16 -22 15 -98 -2 -114 -4 -5 -18 -6 -30 -2 -20 6 -21 8 -4 26 16 17 16 19 0 25 -17 7 -35 0 -88 -34 -26 -16 -28 -16 -51 6 -28 26 -43 27 -86 6 -38 -19 -91 -25 -107 -12 -7 5 -16 8 -20 7 -5 -1 -16 0 -24 4 -35 13 -73 14 -98 2 -15 -8 -49 -16 -77 -19 -27 -3 -76 -9 -107 -14 -64 -10 -144 -8 -170 3 -21 8 -74 -8 -107 -34 l-23 -18 21 -40 c24 -48 74 -89 167 -139 38 -20 74 -41 79 -47 7 -7 5 -7 -4 -2 -14 8 -43 14 -93 18 -19 2 -43 20 -78 59 -28 31 -59 60 -70 63 -11 4 -23 20 -28 38 -4 18 -18 36 -30 42 -18 8 -21 16 -17 40 3 16 7 40 9 53 2 13 16 36 31 51 35 38 15 51 -26 17 -17 -14 -35 -26 -39 -26 -10 0 -29 -31 -35 -58 -3 -9 -9 -35 -14 -56 -19 -78 0 -148 60 -225 29 -37 57 -37 66 -1 7 25 19 25 40 0 10 -11 25 -20 35 -20 9 0 20 -5 23 -11 4 -5 32 -22 63 -37 52 -25 66 -27 172 -26 181 2 330 46 433 127 46 36 97 121 97 162 0 25 5 32 33 41 19 5 40 7 48 3 8 -4 21 -10 30 -12 23 -7 25 -95 2 -112 -15 -11 -15 -17 -5 -39 14 -31 6 -76 -16 -92 -11 -8 -12 -13 -3 -18 9 -6 8 -13 -6 -28 -10 -11 -18 -27 -18 -36 0 -12 -9 -17 -27 -17 -15 0 -27 -4 -27 -10 0 -5 12 -9 26 -8 24 2 25 1 7 -12 -11 -8 -27 -15 -36 -15 -9 0 -20 -4 -23 -10 -3 -5 -16 -10 -28 -10 -13 0 -31 -9 -41 -21 -13 -16 -25 -20 -49 -16 -18 2 -44 -2 -59 -9 -22 -11 -43 -12 -105 -4 -43 6 -109 15 -148 19 -38 5 -81 14 -95 19 -14 5 -48 13 -76 17 -55 7 -78 -5 -47 -25 15 -10 14 -11 -10 -7 -30 5 -45 -7 -24 -20 7 -4 20 -20 30 -35 12 -20 26 -28 45 -28 26 0 109 -23 143 -40 9 -5 35 -6 57 -3 29 4 49 1 65 -10 14 -9 38 -15 55 -15 17 1 38 -5 47 -12 13 -11 19 -10 35 5 19 17 21 17 38 2 10 -10 22 -14 26 -10 4 4 12 0 17 -10 11 -19 73 -24 84 -7 4 6 15 8 25 5 12 -4 22 1 29 12 8 14 9 9 7 -22 -1 -22 1 -56 5 -74 4 -19 4 -41 0 -49 -5 -8 -5 -29 -1 -47 6 -25 3 -34 -11 -43 -18 -11 -16 -44 3 -68 5 -7 1 -31 -11 -60 -10 -27 -24 -74 -30 -106 -7 -31 -19 -59 -27 -62 -7 -3 -14 -16 -14 -30 0 -14 -4 -37 -10 -51 -8 -22 -15 -26 -42 -23 -30 3 -33 0 -36 -25 -2 -16 1 -34 7 -41 8 -10 8 -16 -2 -25 -8 -6 -12 -22 -10 -34 3 -16 -5 -34 -22 -56 -21 -24 -26 -38 -22 -61 4 -16 2 -32 -3 -35 -4 -3 -12 -20 -15 -38 -4 -17 -14 -39 -22 -49 -8 -9 -16 -22 -17 -30 -1 -7 -12 -29 -24 -48 -12 -19 -22 -41 -22 -48 0 -7 -4 -11 -9 -7 -5 3 -39 -24 -76 -60 -36 -36 -71 -63 -76 -59 -5 3 -16 0 -24 -6 -8 -7 -49 -13 -91 -15 -60 -2 -81 -7 -105 -24 -22 -17 -34 -20 -43 -12 -7 6 -16 8 -19 4 -4 -3 -13 -1 -21 6 -7 6 -27 12 -42 12 -16 0 -47 0 -69 0 -22 1 -58 -6 -80 -14 -35 -13 -41 -13 -51 1 -10 14 -17 14 -52 3 -23 -8 -45 -10 -53 -5 -19 12 -47 6 -78 -17 -21 -15 -33 -17 -63 -10 -20 5 -39 7 -41 4 -3 -2 -20 5 -38 16 -19 12 -43 25 -55 30 -28 12 -144 120 -144 134 0 5 -17 26 -38 46 -88 84 -185 232 -285 436 -35 72 -42 87 -70 134 -40 69 -168 326 -182 364 -8 23 -9 39 -3 43 5 3 7 11 5 18 -3 7 15 11 57 11 41 0 60 4 59 12 -2 8 6 9 27 3 18 -5 32 -5 36 1 4 6 11 5 20 -2 21 -17 62 4 74 37 9 21 15 25 35 20 20 -5 31 0 50 20 14 15 22 30 20 35 -3 4 -1 10 5 14 16 10 0 26 -23 24 -12 -2 -32 1 -45 5 -15 5 -31 3 -45 -7 -32 -20 -77 -31 -119 -28 -20 1 -45 -2 -55 -8 -11 -5 -53 -12 -94 -16 -62 -5 -78 -3 -89 9 -7 9 -9 16 -4 16 5 0 2 6 -7 13 -13 10 -25 30 -34 57 -1 3 -5 12 -8 20 -4 8 -11 35 -16 59 l-9 43 26 -5 c232 -46 391 -48 482 -5 30 15 86 54 124 87 48 42 73 58 80 51 5 -5 22 -10 38 -10 53 0 80 81 59 182 -14 65 -58 125 -85 115 -13 -5 -16 -13 -11 -25 16 -38 22 -91 11 -102 -6 -6 -12 -15 -12 -20 -1 -6 -3 -12 -4 -15 -3 -6 -7 -22 -9 -34 0 -5 -12 -8 -25 -7 -24 1 -24 1 -7 21 19 21 37 63 33 79 -2 4 2 14 7 20 8 9 3 20 -18 40 -22 21 -36 27 -62 24 -42 -4 -41 -20 0 -32 17 -5 31 -13 31 -18 0 -5 -8 -7 -17 -4 -42 11 -101 17 -106 9 -3 -4 -31 -9 -63 -11 -32 -2 -64 -8 -71 -13 -6 -6 -75 -12 -153 -14 -77 -2 -146 -7 -153 -13 -21 -16 -57 -21 -90 -11 -18 5 -51 10 -74 10 -24 1 -43 5 -43 10 0 5 -13 23 -28 41 -16 18 -58 92 -93 163 -35 72 -78 155 -95 185 -67 117 -102 218 -114 335 -6 61 -14 130 -16 155 -9 80 -6 343 5 410 11 69 61 265 81 315 21 55 74 159 113 224 21 35 43 74 48 85 5 12 22 37 37 57 15 20 52 69 83 110 60 79 94 114 112 114 7 0 14 5 15 10 2 6 8 15 13 21 17 20 -4 23 -30 5 -41 -30 -59 -13 -59 54 1 31 5 58 11 62 6 3 7 1 3 -5 -3 -6 -2 -13 3 -16 5 -4 12 -3 15 2 3 5 -26 39 -64 77 -68 67 -70 68 -89 50 -15 -12 -24 -15 -33 -8 -7 6 -25 13 -39 16 -34 9 -49 45 -54 133 -2 38 -6 92 -9 119 -3 28 -7 82 -9 120 -1 39 -7 79 -14 90 -6 11 -11 55 -11 97 0 43 -3 86 -6 95 -3 10 -8 47 -11 82 -3 35 -10 71 -15 80 -13 23 -28 148 -34 281 -3 63 -12 138 -20 165 -8 28 -22 79 -31 114 -34 135 -156 344 -224 384 -17 10 -31 22 -31 27 0 6 -18 21 -39 35 -22 13 -48 33 -58 44 -10 10 -34 27 -53 38 -80 44 -100 59 -106 76 -9 28 -51 50 -100 52 -24 2 -50 7 -57 12 -6 5 -30 11 -51 12 -58 4 -74 8 -120 31 -23 11 -47 20 -54 20 -20 0 -61 22 -66 36 -7 19 15 94 81 269 8 22 45 103 83 180 37 77 82 173 100 214 17 40 53 110 79 155 27 44 61 106 77 136 60 116 120 218 177 299 32 46 63 95 68 108 5 13 15 23 23 21 8 -2 14 2 13 7 -1 6 -6 9 -12 7 -5 -2 -6 0 -2 5 5 4 21 8 35 8 20 0 27 5 27 20 0 11 -6 19 -12 18 -7 -2 -13 4 -13 14 0 19 86 103 103 100 6 -1 18 12 27 28 8 17 20 37 25 45 5 8 10 23 10 32 2 23 8 29 34 31 12 1 56 34 97 74 49 47 84 73 99 73 12 0 28 7 35 15 7 8 9 15 5 15 -17 0 18 29 42 35 15 3 39 18 52 32 43 42 249 131 272 117 5 -3 18 0 29 6 52 28 125 33 265 20z m2165 -1408 c0 -17 -80 -82 -101 -82 -8 0 89 98 99 100 1 0 2 -8 2 -18z m94 -52 c38 -14 32 -35 -21 -71 -43 -30 -130 -69 -153 -69 -22 0 -7 27 30 54 22 17 40 38 40 48 0 17 42 47 67 48 6 0 23 -4 37 -10z m245 -304 c45 -23 68 -53 75 -99 1 -8 13 -30 28 -48 14 -19 28 -48 32 -66 4 -17 14 -38 23 -45 26 -21 73 -130 73 -170 0 -20 -5 -49 -11 -65 -6 -15 -10 -29 -10 -30 3 -10 -45 -45 -84 -63 -25 -11 -45 -26 -45 -33 0 -7 -9 -18 -20 -25 -12 -7 -18 -16 -15 -21 2 -5 -2 -14 -10 -21 -8 -7 -15 -20 -15 -29 -1 -10 -6 -7 -15 11 -17 30 -39 40 -74 33 -14 -2 -31 1 -39 7 -8 7 -26 12 -40 13 -25 0 -27 3 -25 40 1 22 2 51 2 65 0 54 25 168 48 216 12 28 23 56 23 62 0 16 11 15 38 -4 15 -10 27 -12 39 -6 11 7 23 6 35 -1 13 -9 21 -8 29 0 17 17 -6 43 -32 38 -12 -2 -19 2 -19 11 0 8 5 15 10 15 6 1 16 2 23 3 6 1 22 -4 34 -12 26 -16 42 -9 39 16 -2 12 -12 17 -33 16 -17 -1 -30 3 -29 10 0 6 -3 12 -8 13 -5 0 -13 9 -18 18 -8 13 -12 14 -25 3 -15 -12 -15 -11 -3 9 30 47 -22 60 -150 38 -39 -7 -43 -6 -33 7 10 11 10 17 1 26 -24 24 -15 40 35 66 63 32 104 33 166 2z m-159 -264 c0 -5 -3 -12 -6 -15 -4 -3 -7 -28 -8 -54 -1 -36 -9 -59 -31 -90 -27 -39 -59 -53 -61 -28 0 6 -4 18 -9 28 -10 23 1 100 17 127 18 28 98 55 98 32z m-1067 -4699 c-3 -38 -5 -71 -6 -75 -2 -8 -32 10 -109 66 -44 31 -46 35 -30 49 11 10 36 16 70 15 30 0 56 3 59 6 16 16 20 0 16 -61z m385 17 c4 -22 -19 -50 -39 -50 -8 0 -19 34 -24 72 -3 27 -2 27 29 14 20 -8 32 -21 34 -36z m-1483 -28 c4 -10 -11 -33 -47 -69 -29 -29 -55 -53 -59 -53 -3 0 -9 19 -12 43 -3 23 -9 52 -13 65 -6 21 -3 22 39 22 25 0 48 4 52 10 8 13 32 2 40 -18z m-455 -107 c0 -49 -10 -55 -40 -25 -25 25 -26 46 -2 59 33 20 42 13 42 -34z"/>
 <path d="M1600 7605 c-10 -11 -10 -19 -2 -27 15 -15 44 -2 40 19 -4 23 -22 27 -38 8z"/>
 <path d="M2504 5446 c-4 -10 -2 -22 4 -28 8 -8 13 -7 18 6 4 10 2 22 -4 28 -8 8 -13 7 -18 -6z"/>
 <path d="M3727 4773 c-2 -5 -3 -16 -2 -25 4 -23 -31 -31 -165 -34 -297 -8 -430 -22 -514 -56 -28 -11 -69 -21 -91 -22 -35 -1 -41 2 -53 29 -13 29 -14 29 -28 11 -13 -18 -15 -18 -32 -3 -18 16 -23 14 -100 -43 -45 -32 -100 -78 -122 -100 -22 -22 -44 -38 -49 -36 -4 3 -16 -1 -26 -8 -18 -13 -17 -14 5 -26 17 -9 46 -11 109 -5 47 5 102 9 121 10 19 1 43 5 53 9 41 15 50 16 62 6 16 -14 44 18 47 54 2 16 7 30 13 32 12 3 91 15 123 18 12 2 21 6 20 10 -9 28 191 62 332 57 66 -3 193 -21 204 -30 6 -4 18 -9 26 -9 8 -1 31 -2 50 -3 19 -1 43 -6 52 -10 10 -6 19 -5 23 1 4 6 11 8 16 4 6 -3 45 -7 87 -9 89 -3 177 18 192 45 8 16 -2 24 -84 64 -52 25 -101 46 -110 46 -8 0 -18 5 -21 11 -4 6 -22 9 -40 7 -19 -1 -37 1 -41 5 -10 9 -52 9 -57 0z"/>
 <path d="M3131 4603 c-29 -20 -13 -40 18 -24 12 7 21 16 21 21 0 17 -17 19 -39 3z"/>
 <path d="M3155 4561 c-4 -8 1 -21 13 -33 26 -26 38 -7 14 23 -14 16 -21 19 -27 10z"/>
 <path d="M3021 4539 c-51 -10 -69 -23 -50 -35 21 -12 52 -13 74 -1 11 6 25 11 30 12 6 0 10 6 10 14 0 19 -11 20 -64 10z"/>
 <path d="M3694 4085 c-9 -22 4 -34 64 -61 40 -18 59 -21 66 -14 13 13 -6 30 -77 65 -39 20 -49 22 -53 10z"/>
 <path d="M3530 4031 c-55 -20 -60 -40 -20 -75 35 -29 64 -32 127 -13 61 18 73 34 38 47 -15 6 -36 22 -47 35 -22 29 -36 29 -98 6z"/>
 <path d="M3130 3960 c-28 -25 -55 -40 -72 -40 -33 0 -44 -16 -27 -36 10 -12 27 -15 71 -12 62 5 89 21 115 71 34 66 -19 76 -87 17z"/>
 <path d="M2936 3201 c-9 -15 23 -36 35 -24 8 8 5 14 -9 22 -12 6 -23 7 -26 2z"/>
 <path d="M4733 2944 c-8 -21 13 -42 28 -27 13 13 5 43 -11 43 -6 0 -13 -7 -17 -16z"/>
 <path d="M4585 2780 c-8 -13 20 -24 41 -16 20 8 9 26 -16 26 -10 0 -22 -5 -25 -10z"/>
 <path d="M4443 1824 c-9 -25 13 -40 26 -16 10 19 6 32 -11 32 -5 0 -11 -7 -15 -16z"/>
 <path d="M5226 6101 c-8 -12 3 -61 16 -78 7 -9 15 -10 29 -2 19 10 19 11 2 40 -23 39 -39 53 -47 40z"/>
 </g>
<g id="layer2" fill="#8c8c8c" stroke="none">
 <path d="M2623 9820 c-23 -5 -51 -14 -63 -20 -11 -6 -24 -9 -29 -6 -23 14 -208 -66 -280 -121 -24 -18 -48 -33 -53 -33 -16 0 -67 -43 -62 -52 3 -4 -4 -8 -15 -8 -11 0 -47 -25 -80 -56 -34 -31 -61 -53 -61 -48 0 4 -12 -4 -27 -17 -16 -14 -41 -31 -56 -37 -15 -7 -26 -16 -23 -21 3 -5 -1 -11 -9 -15 -8 -3 -12 -12 -9 -20 3 -8 -3 -19 -16 -26 -11 -6 -18 -15 -15 -21 4 -5 11 -7 16 -4 5 3 6 -1 3 -9 -3 -9 -10 -14 -14 -11 -5 3 -33 -18 -64 -46 -39 -35 -56 -59 -56 -75 0 -14 -7 -27 -15 -30 -9 -4 -24 -26 -35 -50 -11 -24 -42 -73 -68 -109 -55 -78 -95 -144 -165 -275 -27 -52 -71 -132 -98 -176 -26 -45 -62 -115 -79 -155 -18 -41 -63 -137 -100 -214 -38 -77 -75 -158 -83 -180 -75 -201 -89 -252 -77 -276 11 -19 60 -49 81 -49 7 0 32 -9 55 -20 46 -23 62 -27 120 -31 21 -1 45 -7 52 -12 7 -6 29 -11 50 -12 56 -2 81 -14 88 -41 6 -23 22 -35 89 -68 17 -8 56 -35 89 -60 32 -25 62 -46 67 -46 5 0 9 -6 9 -14 0 -8 17 -24 38 -36 20 -12 53 -43 72 -68 50 -68 126 -226 145 -302 9 -36 23 -87 31 -115 8 -27 17 -102 20 -165 6 -133 21 -258 34 -281 5 -9 12 -45 15 -80 3 -35 8 -72 11 -82 3 -9 6 -52 6 -95 0 -42 5 -86 11 -97 7 -11 13 -51 14 -90 2 -38 6 -92 9 -120 3 -27 7 -83 9 -122 5 -84 24 -129 63 -146 15 -6 31 -17 35 -24 6 -10 15 -10 44 2 45 19 42 19 53 -10 5 -14 15 -24 22 -23 7 2 13 -3 14 -9 1 -7 3 -14 4 -15 1 -2 3 -32 5 -68 3 -55 7 -68 28 -86 l26 -22 -21 -18 c-12 -11 -46 -52 -77 -93 -31 -41 -68 -90 -83 -110 -15 -20 -32 -45 -37 -57 -5 -11 -27 -50 -48 -85 -39 -65 -92 -169 -113 -224 -20 -50 -70 -246 -81 -315 -11 -67 -14 -330 -5 -410 2 -25 10 -94 16 -155 12 -117 47 -218 114 -335 17 -30 60 -113 95 -185 35 -71 74 -141 87 -155 12 -14 27 -37 33 -52 9 -23 15 -26 58 -27 26 0 62 -5 80 -10 33 -10 69 -5 90 11 7 6 76 11 153 13 78 2 147 8 153 14 7 5 39 11 71 13 32 2 60 7 63 11 6 10 72 1 120 -15 29 -11 30 -13 20 -37 -6 -14 -30 -49 -54 -78 -24 -28 -42 -57 -41 -64 2 -7 -7 -13 -18 -14 -25 0 -66 -33 -58 -46 3 -5 10 -7 15 -3 5 3 7 10 4 15 -3 5 1 6 10 3 8 -4 21 -1 29 5 7 6 15 8 18 5 3 -2 22 18 43 47 26 36 40 48 47 41 14 -14 48 3 48 22 0 8 7 19 15 26 9 7 14 19 11 26 -3 7 -1 16 4 19 10 6 2 70 -13 100 -7 16 -4 15 17 -6 36 -35 56 -138 37 -198 -10 -36 -16 -41 -41 -41 -16 0 -32 5 -35 10 -11 17 -19 12 -83 -50 -90 -86 -152 -113 -277 -118 -65 -2 -135 2 -200 13 -55 9 -114 19 -131 22 -18 3 -34 1 -37 -4 -6 -9 8 -84 20 -113 3 -8 5 -19 4 -23 -1 -5 7 -20 17 -35 11 -15 17 -32 15 -39 -5 -14 58 -46 84 -42 10 2 32 -1 49 -5 24 -5 40 -2 69 16 22 12 36 17 32 11 -12 -20 15 -27 29 -8 7 10 19 15 27 12 15 -6 65 9 105 31 17 10 27 10 36 3 7 -6 17 -7 21 -3 5 4 5 -1 2 -10 -3 -10 -2 -20 4 -23 12 -8 0 -27 -14 -22 -7 2 -12 10 -12 17 0 7 -10 14 -21 16 -24 4 -62 -30 -45 -41 6 -3 11 -15 11 -25 0 -21 -33 -36 -52 -24 -22 14 -102 12 -126 -3 -12 -7 -21 -10 -20 -6 2 4 -1 8 -7 8 -5 0 -9 -3 -7 -8 1 -4 -15 -4 -37 -1 -37 6 -63 -7 -41 -21 6 -4 8 -10 5 -15 -3 -5 1 -29 9 -52 14 -41 140 -295 183 -369 28 -48 36 -63 70 -134 46 -94 126 -236 161 -285 18 -25 40 -56 49 -70 19 -28 100 -120 169 -192 67 -70 170 -135 219 -138 78 -4 111 2 107 19 -2 13 24 15 32 2 6 -9 52 -1 89 14 12 5 22 2 30 -9 12 -16 16 -16 57 -1 25 9 63 17 85 16 22 0 54 0 71 0 20 0 34 -7 38 -17 5 -12 10 -14 19 -5 10 7 17 7 24 0 8 -8 19 -5 40 10 15 11 49 23 74 26 42 6 47 4 53 -17 6 -22 7 -22 21 -4 18 23 64 48 76 40 6 -3 24 9 42 26 18 18 42 39 55 47 12 9 22 22 22 29 0 8 5 15 10 15 6 1 16 2 22 3 7 0 19 15 27 31 7 17 19 39 26 50 7 11 13 25 14 30 1 6 9 14 17 18 8 5 12 12 9 17 -3 5 -1 11 5 15 5 3 10 14 10 23 0 9 6 29 14 43 7 14 11 39 9 56 -4 24 0 34 15 42 18 9 40 64 30 74 -2 2 3 12 11 21 11 13 11 20 3 28 -7 7 -12 23 -12 37 1 23 2 24 11 8 10 -18 13 -17 40 9 16 15 29 33 29 40 0 6 7 17 15 24 9 7 14 19 11 26 -3 7 1 26 9 41 8 15 15 37 15 48 0 11 11 51 25 89 19 55 22 72 12 87 -9 15 -8 24 4 46 11 19 14 38 9 60 -5 22 -3 39 6 52 9 13 11 22 4 26 -6 4 -9 22 -7 40 2 19 2 37 -1 40 -4 3 -6 18 -7 33 0 21 -4 26 -20 24 -11 -2 -29 -4 -39 -6 -11 -1 -22 -8 -24 -14 -2 -7 -13 -12 -23 -12 -11 0 -17 5 -14 10 3 6 -4 14 -16 18 -20 8 -20 9 -4 15 26 11 -1 40 -29 31 -18 -6 -19 -5 -7 9 11 14 11 18 -1 22 -8 3 -27 1 -42 -4 -15 -6 -30 -10 -34 -8 -4 1 -8 -2 -9 -8 -2 -5 3 -10 10 -11 40 -3 40 -4 27 -19 -9 -11 -16 -12 -25 -5 -7 6 -63 12 -124 14 -61 2 -114 6 -118 10 -3 3 -16 6 -28 6 -13 0 -39 7 -58 15 -20 8 -51 15 -69 16 -28 0 -30 2 -12 9 24 9 26 46 3 61 -9 5 1 6 26 2 22 -3 43 -11 47 -16 3 -6 42 -12 85 -14 75 -3 135 -18 130 -32 -1 -3 3 -6 8 -6 6 0 9 4 7 9 -2 5 23 6 55 2 32 -4 67 -8 78 -9 11 -1 20 4 20 12 0 11 14 15 49 16 33 0 52 6 61 18 7 9 19 17 28 17 9 0 19 4 22 10 3 5 13 10 22 10 20 0 75 39 68 50 -3 4 2 11 11 14 9 3 14 12 11 20 -3 8 1 23 8 34 8 10 12 22 8 25 -3 4 -1 12 4 19 18 22 24 68 12 89 -8 16 -7 24 5 38 17 19 20 117 4 127 -5 3 -2 14 7 24 14 15 17 43 15 120 0 8 7 49 15 90 8 41 17 103 19 137 2 33 7 66 11 73 4 6 2 17 -5 25 -8 9 -8 15 0 20 16 10 4 325 -17 405 -3 14 -7 57 -9 95 -3 78 -6 94 -30 174 -21 67 -21 70 -28 97 -5 26 -23 92 -38 147 -6 23 -12 45 -12 49 -1 3 -4 10 -8 14 -5 4 -8 16 -8 26 0 25 -55 141 -74 157 -9 8 -16 20 -16 27 0 17 -70 131 -115 188 -16 21 -59 69 -94 107 -36 38 -71 78 -78 89 -8 11 -20 20 -28 20 -7 0 -27 14 -43 30 -17 17 -35 30 -40 30 -5 0 -17 10 -28 21 -10 12 -39 31 -64 43 -25 12 -59 31 -77 44 -20 14 -34 18 -38 12 -4 -6 -14 -9 -22 -8 -10 2 -17 -5 -18 -20 -4 -51 -21 -42 -87 45 -85 115 -180 199 -285 253 -45 23 -54 33 -27 28 10 -2 18 5 20 16 4 29 22 42 36 28 17 -17 47 -15 54 3 4 8 10 12 15 9 6 -3 20 1 33 9 17 11 26 13 34 5 6 -6 19 -7 29 -4 17 7 17 8 1 20 -10 7 -18 21 -18 30 0 9 -7 19 -15 22 -8 4 -15 12 -15 19 0 7 -7 18 -15 25 -8 7 -15 23 -15 35 0 18 4 22 21 18 11 -3 25 -16 29 -29 6 -15 15 -22 24 -18 8 3 27 -3 42 -12 15 -10 33 -19 40 -20 8 -1 25 -12 40 -23 14 -11 30 -19 34 -16 4 3 15 -6 24 -19 12 -18 23 -24 46 -22 18 1 35 9 40 16 7 12 14 12 45 -3 20 -9 42 -17 49 -17 15 0 49 34 41 42 -3 3 1 20 8 39 17 42 15 162 -2 183 -8 9 -10 16 -7 16 4 0 2 8 -3 18 -7 12 -7 22 0 29 23 23 3 320 -26 390 -9 21 -23 71 -30 112 -8 40 -19 79 -25 86 -6 7 -10 24 -8 37 3 32 -12 117 -23 124 -5 3 -7 10 -3 15 4 6 14 3 25 -7 10 -9 19 -15 20 -13 0 2 3 13 6 24 3 11 7 65 8 120 1 55 6 109 12 120 6 11 13 38 16 60 9 65 17 97 33 152 9 28 14 57 12 65 -3 7 -1 24 4 38 6 14 11 54 12 90 2 51 8 74 29 107 15 24 27 47 27 52 0 5 7 12 16 15 9 4 14 9 11 13 -8 8 62 93 77 93 23 0 58 47 51 69 -4 15 2 28 25 48 26 23 32 37 35 76 2 41 8 52 50 89 25 24 65 73 88 110 82 130 147 217 192 255 37 31 45 43 45 72 0 29 -12 46 -97 133 -98 100 -396 350 -502 421 -31 21 -99 62 -151 93 -52 30 -104 60 -114 67 -165 103 -269 160 -416 227 -103 46 -134 61 -380 186 -228 116 -264 128 -425 144 -115 11 -144 11 -202 0z m1242 -5080 c3 -5 14 -10 23 -10 25 0 165 -74 162 -85 -8 -34 -225 -41 -261 -9 -17 15 -23 13 -21 -7 1 -4 -20 -5 -46 -2 -26 3 -54 5 -62 5 -8 1 -20 5 -26 9 -11 9 -138 27 -204 30 -19 0 -82 -2 -139 -5 -84 -5 -118 -12 -175 -37 -39 -16 -91 -33 -116 -36 -25 -3 -54 -10 -65 -16 -11 -6 -24 -10 -29 -9 -17 5 -46 -31 -40 -50 4 -13 0 -18 -14 -18 -10 0 -22 -3 -26 -7 -4 -4 -24 -8 -44 -8 -20 -1 -75 -5 -122 -10 l-85 -8 59 54 c72 65 127 108 141 109 6 0 19 10 29 22 l19 22 8 -23 c5 -12 13 -20 18 -17 5 3 12 -1 15 -10 5 -13 9 -14 20 -5 8 7 17 8 19 3 9 -14 89 -5 143 16 85 34 209 47 519 56 109 3 175 15 199 37 5 4 14 5 21 3 7 -3 16 -1 20 5 8 14 52 14 60 1z m-235 -740 l27 -29 -30 -11 c-43 -14 -79 -13 -105 6 -30 20 -25 34 18 49 52 19 60 18 90 -15z m-420 -25 c0 -4 -7 -19 -15 -36 -19 -36 -51 -49 -113 -48 -46 1 -47 1 -12 9 18 5 39 15 46 24 6 9 16 16 22 16 6 0 16 9 22 20 9 17 50 29 50 15z m564 -737 c-12 -74 -10 -93 13 -103 12 -5 24 -21 27 -37 3 -17 19 -36 43 -51 21 -14 57 -47 80 -75 28 -32 50 -50 65 -50 65 -2 79 -5 74 -18 -7 -19 12 -28 29 -14 10 8 24 8 53 1 42 -12 139 -10 135 2 -2 4 -4 6 -5 5 -2 -1 -13 4 -25 10 -12 7 -41 13 -65 13 -30 1 -66 14 -122 45 -43 24 -80 44 -83 44 -18 0 -99 72 -114 102 l-19 37 22 15 c31 20 75 30 82 18 6 -10 190 -7 206 3 5 3 35 8 67 11 32 3 70 12 85 19 27 13 74 10 94 -7 6 -4 18 -6 27 -2 8 3 18 1 21 -4 8 -13 70 -6 107 12 42 21 55 20 79 -4 26 -26 39 -25 80 5 18 14 36 23 38 20 9 -8 -30 -45 -48 -45 -24 0 -40 -21 -40 -53 0 -39 -46 -122 -84 -151 -44 -33 -124 -72 -176 -86 -25 -6 -53 -14 -64 -17 -11 -3 -16 -1 -12 5 3 5 -1 15 -9 22 -15 12 -17 10 -19 -20 -1 -19 -104 -33 -201 -26 -75 5 -133 29 -238 100 -22 15 -30 16 -42 6 -8 -7 -15 -19 -15 -26 0 -20 -14 -17 -36 9 -52 60 -71 138 -53 213 5 21 12 47 14 58 4 17 23 46 31 46 2 0 1 -15 -2 -32z"/>
 <path d="M4088 3155 c-3 -3 -42 -7 -86 -8 -81 -2 -110 -11 -78 -23 15 -6 15 -7 -1 -19 -15 -11 -13 -14 18 -30 19 -10 52 -32 74 -50 48 -38 83 -57 96 -53 12 4 17 157 6 176 -9 13 -20 16 -29 7z"/>
 <path d="M4405 3150 c-3 -5 -3 -19 0 -31 5 -14 1 -25 -12 -34 -17 -13 -17 -14 2 -21 11 -5 28 -17 37 -29 l16 -20 29 21 c41 30 44 78 6 97 -44 23 -71 29 -78 17z"/>
 <path d="M4178 3065 c-9 -21 -9 -29 4 -42 23 -22 46 -10 43 21 -6 51 -29 61 -47 21z"/>
 <path d="M4253 3064 c-3 -8 -1 -20 5 -26 15 -15 47 -5 47 16 0 24 -43 33 -52 10z"/>
 <path d="M4934 8385 c-87 -81 -94 -88 -89 -96 9 -13 56 1 90 26 17 14 34 25 38 25 14 0 -28 -63 -59 -86 -35 -27 -45 -61 -19 -70 39 -15 235 90 235 126 0 38 -71 71 -109 51 -19 -11 -20 -9 -15 17 4 18 1 32 -9 40 -12 10 -23 4 -63 -33z"/>
 <path d="M5184 8067 c-44 -18 -93 -55 -90 -71 1 -8 8 -21 14 -29 9 -11 10 -17 2 -22 -8 -5 -7 -11 2 -22 12 -15 36 -14 111 3 28 6 28 6 15 -15 -11 -20 -11 -24 7 -37 11 -8 35 -14 54 -12 38 3 54 -16 20 -25 -17 -5 -21 -11 -17 -32 6 -29 -10 -45 -23 -23 -5 8 -21 15 -36 14 -22 -1 -29 -6 -31 -26 -2 -13 -11 -34 -19 -45 -14 -18 -14 -17 -8 22 5 35 4 44 -10 49 -28 11 -93 -15 -115 -46 -26 -36 -38 -123 -20 -145 7 -8 9 -15 6 -15 -4 0 -2 -9 4 -20 6 -11 19 -20 29 -20 19 0 54 34 65 64 12 35 17 9 6 -39 -6 -26 -11 -61 -11 -78 0 -18 -2 -52 -3 -77 -5 -57 6 -71 44 -60 22 6 32 4 45 -10 17 -19 31 -20 54 -6 10 7 22 0 40 -23 21 -25 29 -29 39 -19 6 6 12 17 12 24 0 6 7 17 15 24 8 7 12 16 9 21 -3 5 2 9 11 9 9 0 19 9 22 20 3 11 10 20 15 20 18 0 118 72 117 84 -1 6 3 24 9 39 25 59 4 148 -56 235 -10 15 -18 34 -17 42 1 8 -8 25 -19 38 -12 13 -37 55 -56 95 -30 63 -42 76 -85 99 -54 29 -100 34 -151 15z"/>
 <path d="M6780 7988 c-19 -12 -57 -33 -85 -48 -27 -15 -72 -40 -100 -56 -27 -16 -74 -43 -104 -59 -29 -17 -144 -90 -255 -164 -194 -129 -258 -183 -283 -242 -6 -16 -26 -34 -45 -42 -18 -8 -58 -36 -88 -61 -30 -25 -74 -63 -98 -82 -24 -20 -56 -55 -70 -78 -15 -22 -35 -48 -44 -58 -10 -10 -18 -27 -18 -38 0 -31 -1 -33 -26 -63 -13 -16 -24 -35 -24 -43 0 -23 -44 -87 -86 -124 -56 -49 -167 -119 -216 -135 -129 -45 -185 -91 -234 -194 -29 -63 -28 -91 6 -167 12 -26 29 -66 36 -88 8 -22 23 -55 33 -72 10 -17 24 -48 31 -70 23 -70 62 -138 100 -176 21 -20 52 -65 69 -100 17 -36 42 -74 54 -87 21 -19 25 -20 37 -6 12 15 12 25 -6 138 -6 37 -6 38 21 33 38 -7 55 -24 55 -57 0 -34 30 -55 59 -40 20 11 19 53 -2 80 -23 28 -24 85 -3 126 9 17 16 38 16 48 0 20 2 20 34 6 19 -9 29 -9 39 0 12 9 16 1 21 -48 11 -95 86 -178 129 -142 18 15 67 -131 102 -304 33 -162 35 -286 6 -408 -20 -85 -33 -116 -105 -252 -33 -61 -37 -76 -33 -125 7 -94 38 -243 61 -295 23 -51 70 -214 105 -365 38 -164 87 -754 77 -920 -9 -138 -37 -320 -61 -400 -41 -135 -85 -309 -85 -336 0 -16 -4 -34 -9 -39 -5 -6 -16 -32 -24 -60 -27 -86 -73 -213 -98 -270 -11 -23 -26 -90 -35 -150 -8 -61 -22 -122 -30 -138 -9 -15 -18 -40 -20 -55 -3 -15 -15 -49 -28 -77 -13 -27 -38 -84 -56 -125 -19 -41 -43 -87 -56 -102 -12 -15 -25 -47 -29 -70 -8 -50 -50 -129 -111 -209 -24 -31 -55 -76 -71 -101 -58 -93 -90 -135 -152 -198 -35 -36 -80 -82 -100 -104 -20 -21 -55 -51 -78 -67 -23 -16 -43 -33 -45 -37 -7 -19 -187 -164 -280 -227 -20 -13 -42 -32 -50 -42 -16 -22 -64 -41 -146 -58 -35 -7 -72 -21 -83 -31 -31 -28 -79 -41 -121 -32 -31 7 -45 3 -82 -17 -38 -21 -53 -24 -108 -20 -35 3 -72 5 -83 5 -38 -1 -70 0 -95 2 -19 2 -24 -1 -22 -14 5 -29 -160 -39 -415 -25 -121 7 -157 13 -175 26 -13 10 -52 23 -88 30 -110 20 -171 41 -285 95 -60 29 -154 72 -209 96 -54 24 -130 65 -170 92 -39 27 -119 81 -178 122 -59 40 -134 97 -165 127 -32 30 -77 70 -101 90 -23 20 -42 43 -42 52 0 8 -27 47 -60 87 -65 78 -186 257 -262 389 -26 46 -48 86 -48 88 0 3 -20 35 -44 72 -23 37 -55 96 -69 132 -36 89 -76 169 -98 198 -11 13 -19 40 -19 60 -1 40 -26 124 -58 186 -11 22 -37 78 -58 125 -21 47 -42 90 -47 97 -22 30 -50 94 -73 168 -14 44 -32 98 -39 120 -7 22 -16 65 -20 95 -3 30 -11 91 -16 135 -5 44 -10 158 -10 254 0 102 -6 213 -15 270 -18 114 -28 674 -14 766 5 33 11 87 15 119 3 33 9 64 12 69 3 4 7 21 8 35 2 15 9 52 15 82 6 30 20 98 30 150 17 86 23 117 36 215 3 17 10 57 16 91 13 68 7 93 -22 101 -11 3 -20 10 -20 15 0 5 9 7 19 3 40 -12 60 59 60 220 1 124 -1 134 -28 190 -37 77 -90 135 -124 135 -14 0 -29 4 -32 10 -3 5 -19 7 -35 3 -28 -5 -30 -3 -28 22 3 38 54 75 102 75 40 0 99 21 111 40 17 27 -106 117 -142 103 -7 -3 -14 -1 -14 3 -8 50 -7 52 34 58 23 4 47 12 54 18 20 16 16 55 -8 71 -26 19 -82 4 -121 -32 l-28 -25 -6 31 c-3 17 -21 44 -39 61 -32 31 -33 31 -124 26 -92 -4 -92 -4 -154 -53 -43 -33 -80 -52 -117 -61 -60 -14 -129 -15 -143 -1 -13 13 10 51 31 51 10 0 34 11 53 25 20 13 39 22 41 19 8 -8 30 24 24 34 -3 5 -20 9 -38 8 -24 -1 -36 4 -43 18 -10 20 -43 33 -100 40 -16 2 -34 4 -38 5 -5 0 -6 5 -3 9 8 13 -53 54 -70 48 -9 -3 -34 5 -57 18 -23 14 -59 28 -80 31 -20 4 -42 15 -47 24 -6 10 -10 -1128 -10 -3136 l0 -3153 3415 0 3415 0 0 4005 c0 2203 -3 4005 -7 4005 -5 0 -24 -10 -43 -22z"/>
 <path d="M4165 6870 c-4 -6 -1 -18 7 -27 7 -9 12 -18 11 -20 -2 -1 -1 -3 2 -3 3 0 8 0 12 0 4 0 2 5 -4 11 -6 6 -9 17 -7 24 7 16 -12 29 -21 15z"/>
 <path d="M0 6502 c0 -93 4 -162 9 -162 5 0 11 -10 13 -22 2 -16 10 -23 26 -24 12 -1 25 -3 30 -4 4 -1 10 -2 13 -2 4 1 14 -7 24 -18 12 -13 22 -17 34 -11 9 5 33 11 54 14 21 3 47 13 58 23 l21 19 -21 16 c-12 10 -21 24 -21 33 0 9 -16 22 -35 30 -38 16 -40 28 -12 58 15 15 16 22 6 34 -6 8 -18 14 -25 14 -8 0 -13 5 -11 12 1 7 -2 12 -8 13 -18 0 -105 68 -110 85 -3 10 -14 25 -25 35 -20 18 -20 17 -20 -143z"/>
 <path d="M827 6169 c-14 -8 -16 -14 -6 -25 6 -7 15 -11 20 -8 5 3 10 0 10 -5 1 -6 2 -17 3 -23 1 -15 74 -12 94 4 17 15 0 33 -34 36 -15 1 -35 9 -44 17 -19 18 -20 18 -43 4z"/>
 <path d="M3856 5791 c-8 -12 31 -44 44 -36 5 3 8 11 5 16 -10 15 -43 30 -49 20z"/>
 <path d="M3900 5735 c-25 -13 -30 -29 -10 -31 21 -3 22 -4 10 -19 -7 -8 -10 -16 -6 -16 3 -1 9 -2 14 -3 4 0 21 -11 39 -24 37 -26 51 -15 23 20 -10 14 -22 37 -25 51 -9 35 -15 38 -45 22z"/>
 <path d="M2965 3100 c-3 -5 -26 -10 -49 -10 -56 0 -72 -18 -57 -61 6 -18 11 -49 11 -70 0 -21 4 -40 9 -43 11 -7 72 43 124 100 l37 41 -23 20 c-32 29 -45 35 -52 23z"/>
 <path d="M3025 3100 c-8 -13 20 -24 41 -16 20 8 9 26 -16 26 -10 0 -22 -5 -25 -10z"/>
 <path d="M2525 3016 c-46 -20 -60 -42 -47 -71 12 -27 70 -67 84 -59 10 6 11 131 0 138 -4 2 -21 -1 -37 -8z"/>
 <path d="M2755 2986 c-19 -14 -19 -16 -2 -33 16 -16 18 -16 34 0 15 15 16 19 2 32 -13 13 -17 13 -34 1z"/>
 <path d="M2679 2988 c-11 -46 9 -80 32 -52 9 11 10 20 3 32 -10 14 -33 28 -35 20z"/>
 <path d="M2845 2858 c-11 -7 -34 -13 -52 -14 -35 -2 -73 -20 -73 -34 0 -14 18 -21 25 -10 3 5 21 10 40 10 19 0 37 5 40 10 4 6 10 8 14 6 12 -8 52 24 46 35 -8 12 -15 11 -40 -3z"/>
 </g>

</svg>