<!DOCTYPE svg PUBLIC "-//W3C//DTD SVG 20010904//EN" "http://www.w3.org/TR/2001/REC-SVG-20010904/DTD/svg10.dtd">
<svg version="1.0" xmlns="http://www.w3.org/2000/svg" width="640px" height="960px" viewBox="0 0 6400 9600" preserveAspectRatio="xMidYMid meet">
<g id="layer1" fill="#212121" stroke="none">
 <path d="M0 8572 l0 -1028 73 -39 c157 -84 286 -160 364 -216 101 -71 123 -83 198 -104 254 -70 477 -162 550 -226 17 -15 48 -32 70 -38 22 -6 49 -17 60 -24 11 -8 45 -22 75 -32 30 -10 80 -32 110 -51 81 -48 147 -74 189 -74 37 0 90 -29 143 -78 25 -23 30 -24 55 -12 16 7 23 15 16 17 -22 8 -15 23 48 102 85 107 175 197 239 241 140 95 452 218 635 250 39 7 92 16 118 21 68 13 117 11 117 -3 0 -10 3 -9 9 1 6 9 9 -2 9 -30 1 -24 -4 -46 -10 -50 -7 -4 -6 -13 1 -28 12 -22 7 -41 -10 -41 -5 0 -9 8 -10 18 -1 11 -4 8 -8 -8 -8 -27 -39 -39 -51 -20 -6 9 -11 7 -19 -7 -6 -12 -21 -23 -33 -26 -17 -5 -23 -14 -24 -36 -1 -17 2 -28 7 -25 5 3 6 -3 2 -12 -4 -11 -8 -13 -11 -6 -2 7 -8 9 -14 6 -19 -12 -28 20 -11 38 9 10 12 18 7 18 -14 -1 -46 -49 -39 -60 3 -6 13 -10 21 -10 12 0 12 -4 4 -20 -6 -11 -15 -18 -20 -15 -6 4 -6 -4 0 -19 5 -14 6 -26 2 -26 -4 0 0 -5 8 -10 13 -8 13 -10 -2 -10 -11 0 -20 10 -24 25 -3 14 -12 25 -20 25 -8 0 -14 6 -14 13 -1 6 -8 -1 -16 -16 -14 -26 -14 -29 3 -45 10 -9 14 -14 9 -9 -32 24 -116 -18 -116 -58 0 -8 -4 -15 -8 -15 -5 0 -16 -6 -26 -13 -16 -12 -16 -13 5 -14 22 -2 39 -19 38 -38 0 -5 -3 -5 -5 1 -9 21 -41 4 -40 -19 1 -12 -2 -27 -6 -33 -5 -7 -3 -14 7 -18 8 -3 15 -11 15 -18 0 -9 -3 -9 -10 2 -8 13 -11 11 -16 -7 -6 -21 -11 -25 -30 -22 -4 0 -11 -5 -15 -13 -7 -10 -9 -10 -9 0 0 8 -5 10 -12 6 -8 -5 -9 -2 -4 11 6 16 4 16 -11 4 -23 -18 -33 -31 -33 -44 1 -5 7 -2 14 8 16 21 26 22 26 2 0 -8 5 -15 10 -15 6 0 10 -9 10 -20 0 -25 -20 -27 -21 -2 0 11 -5 7 -14 -12 l-12 -29 -13 24 -13 24 -10 -22 c-11 -25 -43 -42 -33 -18 9 25 -8 17 -21 -10 -6 -14 -10 -25 -9 -25 0 0 16 4 34 9 38 11 42 1 10 -31 -14 -14 -16 -19 -6 -15 13 4 15 1 9 -21 -10 -38 -38 -41 -44 -5 l-4 28 -2 -28 c-1 -24 -3 -26 -21 -17 -16 8 -21 6 -31 -11 -8 -16 -8 -20 1 -14 8 5 11 -2 8 -21 -2 -19 -11 -33 -26 -39 -20 -9 -23 -15 -19 -47 3 -26 1 -35 -7 -32 -8 3 -11 -6 -8 -32 3 -24 0 -39 -9 -45 -11 -7 -11 -9 -1 -9 7 0 11 -4 7 -10 -3 -5 -12 -7 -20 -3 -11 4 -15 -2 -15 -20 0 -13 -7 -30 -16 -38 -10 -8 -13 -21 -9 -36 3 -13 2 -23 -3 -23 -4 0 -8 -9 -8 -19 0 -15 4 -17 18 -10 15 8 16 6 6 -22 -6 -18 -16 -28 -23 -25 -13 5 -30 -12 -52 -51 -18 -31 -16 -42 2 -19 8 11 15 15 15 10 0 -6 -11 -21 -25 -34 -14 -13 -25 -28 -25 -34 0 -6 5 -3 11 7 15 25 32 22 18 -4 -8 -16 -8 -20 1 -14 8 5 11 0 8 -16 -2 -16 -9 -23 -22 -22 -15 1 -17 -4 -12 -27 3 -18 1 -30 -7 -34 -9 -3 -9 -5 1 -5 6 -1 12 -6 12 -12 0 -6 -10 -8 -22 -5 -13 3 -17 3 -10 0 6 -3 12 -13 12 -21 0 -11 -3 -13 -12 -5 -10 8 -13 4 -14 -14 -1 -13 2 -21 7 -18 5 3 9 1 9 -5 0 -5 3 -18 6 -28 5 -15 4 -15 -5 -3 -9 13 -13 12 -28 -4 -13 -15 -14 -17 -2 -8 14 10 18 9 23 -10 9 -37 7 -43 -9 -22 -11 15 -15 16 -16 4 -2 -24 -5 -34 -13 -53 -6 -12 -3 -22 7 -30 17 -13 12 -77 -5 -77 -6 0 -7 8 -4 17 4 10 4 14 -1 10 -10 -10 -13 -68 -5 -82 3 -5 9 1 13 15 l7 25 1 -26 c1 -16 -5 -29 -15 -33 -8 -3 -12 -2 -9 4 3 6 1 10 -4 10 -14 0 -14 -16 -1 -41 6 -11 7 -19 2 -19 -6 0 -12 -9 -15 -20 -3 -10 -2 -19 2 -18 29 3 30 -5 2 -19 -19 -9 -29 -19 -23 -21 7 -2 8 -11 2 -27 -5 -12 -6 -32 -3 -43 2 -11 -1 -31 -8 -43 -11 -21 -10 -23 3 -11 13 11 16 9 20 -13 4 -21 3 -23 -9 -13 -13 10 -14 5 -8 -37 7 -42 6 -47 -9 -42 -13 5 -15 3 -6 -12 8 -16 5 -21 -21 -31 -22 -10 -27 -15 -17 -21 11 -8 11 -11 0 -18 -8 -4 -13 -12 -13 -17 1 -16 -11 -49 -22 -55 -12 -8 1 -31 14 -24 5 4 9 13 9 21 0 8 9 24 20 36 16 18 20 19 20 6 0 -9 -6 -18 -12 -21 -10 -3 -9 -8 2 -22 8 -10 10 -16 3 -12 -21 13 -23 -10 -3 -33 30 -35 26 -59 -5 -30 -28 27 -32 13 -9 -31 9 -19 13 -41 9 -60 -5 -21 -3 -29 7 -29 8 -1 4 -8 -9 -19 -31 -26 -51 -102 -35 -133 10 -20 11 -19 6 15 -5 32 -4 37 13 37 17 0 20 -7 19 -47 -1 -41 -4 -48 -20 -46 -16 1 -14 -4 12 -28 36 -34 38 -41 18 -58 -11 -10 -16 -8 -21 8 -4 12 -12 18 -21 14 -8 -3 -14 1 -14 8 0 10 -3 10 -11 2 -9 -9 -6 -21 10 -46 21 -35 50 -55 52 -37 1 6 2 14 3 19 0 6 7 16 13 22 10 10 11 6 4 -18 -5 -18 -7 -34 -4 -36 2 -3 -1 -16 -8 -29 -7 -12 -13 -57 -15 -99 -2 -86 -20 -157 -36 -141 -11 11 -18 7 -65 -36 -16 -15 -23 -30 -20 -43 3 -10 2 -19 -2 -19 -4 0 -12 -22 -17 -50 -6 -27 -7 -50 -2 -50 5 0 4 -8 -1 -18 -6 -11 -8 -42 -6 -70 2 -32 0 -52 -7 -52 -5 0 -7 -7 -4 -16 4 -11 2 -15 -8 -11 -13 5 -13 1 -5 -20 5 -15 7 -33 4 -41 -3 -8 -1 -31 5 -51 5 -20 11 -73 12 -118 2 -46 7 -83 11 -83 5 0 6 -9 2 -20 -3 -11 1 -31 12 -47 17 -26 17 -27 0 -20 -14 5 -16 3 -8 -12 12 -21 24 -77 23 -104 0 -9 3 -17 7 -17 12 0 23 -39 23 -82 0 -21 4 -40 9 -44 5 -3 7 -10 4 -15 -4 -5 -1 -9 4 -9 6 0 11 -7 11 -15 0 -8 -6 -15 -13 -15 -8 0 -12 -17 -13 -50 0 -27 4 -50 9 -50 13 0 36 -32 36 -50 0 -12 -2 -12 -13 3 -7 9 -16 17 -20 17 -12 0 5 -63 25 -92 11 -14 19 -35 19 -45 0 -16 23 -58 39 -73 15 -13 42 -71 37 -79 -8 -12 4 -42 13 -36 4 2 16 -25 26 -61 17 -61 35 -91 35 -62 0 8 5 6 11 -5 5 -9 8 -21 5 -25 -6 -10 53 -56 61 -48 3 3 20 -10 38 -29 17 -19 36 -35 41 -35 5 0 2 5 -6 11 -13 9 -13 10 0 6 8 -2 14 -11 12 -20 -3 -17 42 -57 64 -57 8 0 14 -4 14 -10 0 -5 7 -10 15 -10 8 0 34 -14 57 -30 22 -17 45 -30 51 -30 5 0 36 -13 68 -30 43 -21 56 -25 52 -13 -5 13 -3 13 14 5 11 -6 25 -18 33 -26 17 -21 34 -20 26 1 -6 16 -6 16 12 0 10 -9 22 -14 26 -10 4 4 10 3 14 -2 14 -19 68 -52 107 -65 22 -7 49 -19 60 -26 11 -7 45 -13 75 -13 84 0 120 -1 180 -5 34 -3 65 1 82 9 15 7 30 10 33 5 9 -14 251 5 260 21 4 5 17 9 31 9 13 0 24 5 24 11 0 5 4 8 10 4 5 -3 17 -1 27 4 10 5 50 20 88 32 39 13 84 34 101 46 17 13 57 34 88 46 32 13 65 31 75 39 10 9 34 21 52 27 51 16 186 127 198 162 5 16 18 32 28 36 22 8 44 29 37 35 -2 3 2 11 11 18 8 7 15 16 15 21 0 4 5 20 12 36 17 43 17 51 2 64 -12 10 -12 14 3 25 16 12 16 13 2 14 -22 0 -31 68 -13 94 7 10 10 25 7 32 -3 8 0 14 6 14 6 0 11 7 11 15 0 8 5 15 10 15 6 0 10 6 10 14 0 7 7 19 15 26 8 7 15 20 15 29 0 9 9 27 19 40 10 14 17 31 14 38 -3 8 3 23 12 33 10 11 15 20 10 20 -4 0 -2 6 4 13 6 8 8 17 4 20 -3 4 -1 7 6 7 7 0 10 3 7 8 -2 4 4 25 14 47 22 45 24 59 10 50 -6 -3 -10 -1 -10 4 0 6 4 11 9 11 4 0 6 11 4 23 -3 13 2 30 9 38 27 27 50 68 43 78 -3 6 1 24 10 41 8 16 15 32 15 35 0 3 0 6 1 8 0 1 2 30 4 63 2 34 10 75 19 92 20 38 20 43 2 36 -12 -5 -12 5 0 68 30 153 12 327 -40 389 -26 30 -27 37 -24 121 2 67 7 92 18 99 8 4 12 9 7 9 -4 0 3 17 16 38 17 26 23 51 22 84 -1 27 2 48 7 48 4 0 8 5 8 12 0 9 -3 9 -12 0 -23 -23 -28 -12 -29 61 0 39 -3 66 -6 59 -2 -6 -9 -10 -14 -6 -5 3 -5 13 1 25 7 13 7 25 0 38 -14 28 -12 36 5 21 12 -10 15 -10 15 3 0 9 -5 19 -11 23 -7 4 -10 29 -7 65 3 46 11 66 35 96 41 52 56 104 50 173 -5 66 -28 110 -67 133 -25 15 -26 20 -25 85 1 37 5 73 9 80 5 8 2 10 -9 6 -14 -6 -16 -1 -12 24 3 17 0 33 -5 34 -6 2 -4 11 6 20 9 9 12 19 7 22 -5 4 -11 0 -14 -6 -2 -7 -7 -10 -11 -7 -3 3 3 15 14 27 20 21 20 22 2 22 -10 0 -23 -5 -30 -12 -7 -7 -12 -8 -12 -4 0 5 10 18 23 29 l22 19 -24 -7 c-20 -6 -23 -4 -18 9 4 9 2 16 -3 16 -6 0 -10 -5 -10 -12 0 -6 -2 -9 -5 -7 -2 3 -2 15 2 28 4 14 8 19 13 11 5 -8 9 -7 13 4 4 9 2 16 -3 16 -15 0 -12 21 8 44 l17 21 -24 -20 -24 -20 5 21 c5 18 1 21 -22 18 -23 -3 -29 1 -33 23 -6 30 1 53 15 53 5 0 6 -4 3 -10 -3 -5 -2 -10 3 -10 6 0 13 7 16 16 3 8 2 12 -4 9 -13 -8 -13 1 0 25 12 23 -5 67 -29 75 -10 3 -16 17 -17 37 -3 87 -8 128 -14 128 -12 0 -18 36 -9 53 6 10 5 18 -1 22 -5 3 -10 2 -10 -4 0 -5 -8 -9 -17 -8 -13 1 -19 10 -20 34 -1 18 3 31 8 28 5 -4 9 -16 10 -28 0 -21 1 -21 9 -2 5 12 9 14 9 6 1 -8 3 -12 6 -9 8 8 -10 50 -20 48 -6 0 -13 16 -18 36 -9 44 -35 77 -54 70 -18 -7 -28 20 -15 37 6 7 11 31 10 53 0 23 5 52 12 65 12 21 11 22 -1 12 -23 -18 -44 -1 -30 25 7 14 8 23 1 27 -18 11 -11 26 8 17 9 -5 23 -7 30 -5 8 3 10 -1 6 -14 -6 -14 -4 -15 6 -6 15 14 3 36 -16 29 -9 -3 -14 1 -14 12 0 12 -3 13 -8 5 -4 -7 -13 -9 -21 -4 -7 5 -11 13 -8 18 4 6 -5 20 -18 31 -14 12 -25 29 -25 37 0 8 -5 15 -10 15 -7 0 -6 8 2 23 7 12 11 28 10 35 -5 21 18 13 28 -10 9 -22 9 -22 9 3 1 21 -5 28 -24 31 -16 3 -25 1 -25 -7 0 -7 -6 -18 -14 -24 -10 -9 -16 -8 -26 4 -11 14 -7 19 12 16 13 -2 -3 27 -18 33 -8 3 -14 10 -14 16 0 6 6 8 13 4 9 -5 9 -4 0 6 -9 10 -15 10 -26 2 -21 -18 -27 -4 -11 26 17 34 11 39 -15 13 -26 -26 -45 -27 -38 -1 3 10 -1 24 -8 30 -7 6 -15 20 -18 31 -3 12 -3 18 0 15 8 -7 43 23 43 37 0 5 -7 4 -15 -3 -9 -7 -33 -14 -55 -16 -39 -4 -45 1 -41 34 1 6 -6 12 -16 13 -11 0 -13 3 -5 6 16 6 15 34 -2 69 -14 25 -13 29 5 44 23 21 25 32 3 23 -13 -5 -14 1 -9 33 l6 39 -20 -39 c-11 -21 -18 -42 -16 -46 7 -11 -20 -20 -56 -20 -24 0 -29 4 -28 23 0 16 2 18 7 7 10 -22 36 -25 27 -3 -4 10 -7 32 -6 49 1 27 -4 34 -34 48 -19 9 -35 23 -35 31 0 8 -11 17 -25 21 -14 3 -25 11 -25 16 0 6 -8 4 -17 -3 -9 -8 -14 -9 -10 -2 9 15 -3 44 -15 37 -6 -4 -5 -10 3 -15 8 -5 9 -9 3 -9 -11 0 -41 30 -36 37 1 1 2 9 2 16 0 9 -3 8 -9 -2 -6 -10 -13 -10 -28 -3 -10 6 -35 9 -56 7 -20 -2 -37 1 -37 6 0 5 9 9 20 9 14 0 18 5 13 16 -3 9 -9 12 -12 7 -3 -4 -17 -10 -31 -11 -14 -2 -31 -9 -37 -14 -9 -7 -18 -7 -28 2 -9 7 -27 10 -45 6 -18 -3 -30 -1 -30 5 0 6 -4 7 -10 4 -5 -3 -10 1 -10 11 0 14 -2 14 -16 3 -13 -10 -17 -10 -25 2 -5 8 -9 17 -9 22 0 4 -10 7 -22 8 -22 0 -22 1 -3 8 19 8 18 9 -5 13 -25 5 -25 5 3 7 16 0 27 -4 27 -12 0 -7 9 -13 20 -13 11 0 20 3 20 7 0 4 17 -1 38 -11 29 -14 40 -16 51 -7 12 10 7 13 -24 17 -21 3 -40 11 -43 18 -2 8 2 10 14 5 12 -4 15 -3 10 5 -5 8 0 12 13 12 11 0 22 4 25 8 8 13 -53 5 -70 -8 -8 -7 -18 -10 -21 -6 -4 4 -2 10 5 15 6 4 -4 7 -23 7 -19 0 -40 5 -47 12 -9 9 -2 12 32 14 25 0 57 2 73 3 19 1 27 -3 27 -14 0 -13 2 -14 9 -2 13 20 104 15 276 -14 188 -33 276 -56 414 -111 198 -79 246 -108 346 -209 97 -97 172 -215 201 -313 20 -68 16 -82 -30 -112 l-39 -25 37 -3 c29 -3 44 3 72 27 57 50 88 62 143 55 60 -8 95 8 176 76 33 28 63 50 67 50 5 0 20 7 33 16 36 24 293 143 345 161 25 8 64 24 87 34 24 10 45 19 49 19 3 0 33 13 67 28 34 16 85 36 112 44 98 31 341 97 413 113 43 10 91 29 120 48 l47 32 3 1188 2 1187 -3200 0 -3200 0 0 -1028z m3210 -1277 c0 -8 -4 -15 -10 -15 -5 0 -10 7 -10 15 0 8 5 15 10 15 6 0 10 -7 10 -15z m55 6 c-3 -5 4 -13 16 -16 11 -4 18 -9 15 -12 -7 -8 -66 17 -66 28 0 5 9 9 21 9 11 0 18 -4 14 -9z m60 -11 c13 -6 15 -9 5 -9 -8 0 -22 4 -30 9 -18 12 -2 12 25 0z m-199 -47 c-6 -6 -36 9 -36 18 0 5 9 4 20 -3 10 -7 18 -14 16 -15z m134 17 c0 -5 -4 -10 -10 -10 -5 0 -10 5 -10 10 0 6 5 10 10 10 6 0 10 -4 10 -10z m-150 -50 c0 -5 -5 -10 -11 -10 -5 0 -7 5 -4 10 3 6 8 10 11 10 2 0 4 -4 4 -10z m410 -91 c0 -6 -4 -7 -10 -4 -5 3 -10 11 -10 16 0 6 5 7 10 4 6 -3 10 -11 10 -16z m-573 -91 c-3 -8 -6 -5 -6 6 -1 11 2 17 5 13 3 -3 4 -12 1 -19z m910 -34 c12 -11 13 -18 4 -27 -8 -8 -11 -8 -11 2 0 11 -3 11 -17 0 -15 -12 -16 -12 -10 4 4 10 2 17 -6 17 -8 0 -6 4 3 10 19 13 19 13 37 -6z m90 -114 c-1 -22 -17 -28 -17 -7 0 12 9 27 16 27 2 0 2 -9 1 -20z m-1193 -15 c-18 -14 -54 -21 -41 -9 11 12 52 31 56 27 3 -2 -4 -10 -15 -18z m101 6 c3 -5 1 -12 -5 -16 -5 -3 -10 1 -10 9 0 18 6 21 15 7z m1065 5 c0 -2 -7 -7 -16 -10 -8 -3 -12 -2 -9 4 6 10 25 14 25 6z m50 -45 c0 -18 -27 -37 -38 -26 -3 3 0 5 6 5 7 0 12 9 12 20 0 11 5 20 10 20 6 0 10 -9 10 -19z m-1200 -1 c12 -7 10 -9 -8 -7 -12 0 -22 5 -22 9 0 11 12 10 30 -2z m-50 -20 c-8 -5 -17 -7 -19 -4 -3 3 1 9 9 14 8 5 17 7 19 4 3 -3 -1 -9 -9 -14z m20 -30 c0 -5 -5 -10 -11 -10 -5 0 -7 5 -4 10 3 6 8 10 11 10 2 0 4 -4 4 -10z m1270 -74 c0 -3 -4 -8 -10 -11 -5 -3 -10 -1 -10 4 0 6 5 11 10 11 6 0 10 -2 10 -4z m-1310 -16 c0 -5 -5 -10 -11 -10 -5 0 -7 5 -4 10 3 6 8 10 11 10 2 0 4 -4 4 -10z m1322 -22 c-7 -7 -12 -8 -12 -2 0 14 12 26 19 19 2 -3 -1 -11 -7 -17z m174 -185 c-4 -4 -11 -1 -16 7 -16 25 -11 35 7 17 9 -9 13 -20 9 -24z m-1621 8 c-3 -6 -11 -11 -16 -11 -5 0 -4 6 3 14 14 16 24 13 13 -3z m-145 -100 c0 -6 -4 -13 -10 -16 -5 -3 -10 1 -10 9 0 9 5 16 10 16 6 0 10 -4 10 -9z m-40 -71 c0 -5 -5 -10 -11 -10 -5 0 -7 5 -4 10 3 6 8 10 11 10 2 0 4 -4 4 -10z m-60 -210 c0 -5 -4 -10 -10 -10 -5 0 -10 5 -10 10 0 6 5 10 10 10 6 0 10 -4 10 -10z m2020 -35 c0 -6 -7 -20 -15 -31 -14 -19 -14 -19 -15 3 0 12 4 24 10 28 15 9 0 34 -18 28 -15 -4 -15 -3 -2 6 11 8 18 7 28 -6 6 -9 12 -22 12 -28z m-2049 2 c-13 -13 -26 -3 -16 12 3 6 11 8 17 5 6 -4 6 -10 -1 -17z m19 -111 c0 -3 -4 -8 -10 -11 -5 -3 -10 -1 -10 4 0 6 5 11 10 11 6 0 10 -2 10 -4z m-70 -27 c0 -11 -4 -18 -10 -14 -5 3 -7 12 -3 20 7 21 13 19 13 -6z m71 -32 c-8 -8 -11 -7 -11 4 0 20 13 34 18 19 3 -7 -1 -17 -7 -23z m-31 13 c0 -5 -2 -10 -4 -10 -3 0 -8 5 -11 10 -3 6 -1 10 4 10 6 0 11 -4 11 -10z m2120 -21 c0 -5 -4 -9 -10 -9 -5 0 -10 7 -10 16 0 8 5 12 10 9 6 -3 10 -10 10 -16z m-2146 -4 c-7 -16 -24 -21 -24 -6 0 8 7 13 27 20 1 1 0 -6 -3 -14z m0 -54 c4 -5 -3 -7 -14 -4 -23 6 -26 13 -6 13 8 0 17 -4 20 -9z m2167 -164 c-8 -8 -11 -7 -11 4 0 20 13 34 18 19 3 -7 -1 -17 -7 -23z m-1368 -21 c4 -10 1 -13 -9 -9 -15 6 -19 23 -5 23 5 0 11 -7 14 -14z m-138 -16 c9 8 14 1 19 -22 l7 -33 14 25 c9 15 14 19 15 10 0 -11 2 -12 8 -3 13 20 50 3 57 -25 7 -27 7 -27 16 -4 4 12 11 22 14 22 4 0 4 -4 1 -8 -5 -8 20 -34 38 -41 5 -1 13 3 17 11 7 10 11 7 15 -10 6 -21 7 -21 20 -5 13 17 13 17 14 -1 0 -15 3 -16 14 -7 11 9 15 9 19 -1 4 -9 6 -8 6 3 1 18 41 58 41 41 0 -6 -4 -14 -10 -17 -5 -3 -10 -13 -10 -21 0 -8 5 -12 11 -9 6 4 13 -2 16 -14 3 -12 9 -21 13 -21 5 0 10 -6 13 -12 2 -7 3 -5 1 5 -2 13 3 16 22 13 13 -3 24 -1 24 4 0 15 -18 21 -23 8 -3 -7 -6 -1 -6 14 -1 20 3 26 14 22 10 -4 15 0 15 14 0 37 19 33 26 -5 4 -21 9 -32 11 -25 3 7 13 17 24 22 27 15 54 -2 68 -42 8 -24 14 -29 20 -20 7 11 9 11 14 -2 4 -9 12 -16 19 -16 9 0 9 3 0 12 -7 7 -12 25 -12 41 0 24 3 27 14 18 7 -6 20 -9 28 -6 14 6 29 -13 33 -40 0 -5 6 -9 11 -8 7 1 9 -8 6 -23 -3 -19 -1 -23 12 -18 11 4 16 1 16 -11 0 -9 -4 -14 -8 -11 -5 3 -9 -1 -9 -9 0 -13 3 -12 18 1 12 11 17 27 15 48 -5 39 9 67 30 59 11 -4 15 -15 12 -34 -7 -43 10 -35 22 11 6 23 15 38 21 34 6 -3 8 -13 5 -21 -8 -21 4 -39 15 -22 8 12 11 12 18 -1 5 -8 7 -18 5 -22 -13 -21 18 -5 32 17 9 14 21 25 28 25 8 0 8 -2 -1 -8 -12 -8 -16 -25 -14 -57 2 -18 5 -17 26 10 25 31 34 20 14 -17 -7 -14 -8 -23 -1 -30 6 -6 8 -17 5 -26 -4 -10 -2 -13 5 -8 7 4 13 22 13 39 l1 32 7 -30 c7 -30 -5 -75 -20 -75 -5 0 -8 -23 -7 -51 2 -31 -2 -53 -10 -58 -9 -6 -7 -17 9 -47 16 -28 20 -48 15 -67 -9 -39 -27 -34 -19 5 l6 33 -27 -30 c-26 -28 -26 -30 -9 -43 56 -43 58 -44 45 -49 -7 -3 -19 -18 -28 -35 -13 -24 -20 -29 -40 -24 -19 5 -27 1 -36 -18 -10 -23 -15 -25 -64 -21 -41 4 -54 2 -54 -9 0 -31 -29 -39 -143 -37 -134 2 -350 16 -391 25 -16 4 -40 18 -52 32 -15 15 -34 24 -53 24 -16 0 -33 5 -36 10 -9 15 -27 12 -20 -2 3 -7 -2 -3 -11 10 -9 12 -23 22 -30 22 -8 0 -14 7 -14 16 0 14 3 14 15 4 10 -9 15 -9 15 -1 0 6 -5 11 -10 11 -11 0 -29 39 -37 80 -6 34 -22 50 -49 50 -14 0 -24 6 -24 14 0 8 -6 16 -12 18 -7 3 -13 13 -13 23 0 10 -6 20 -12 22 -8 3 -13 -4 -13 -15 0 -10 -9 -27 -20 -37 -16 -14 -17 -20 -8 -26 11 -7 16 -31 19 -94 1 -20 -7 -61 -15 -73 -4 -7 -4 -16 -1 -22 3 -5 2 -10 -3 -10 -5 0 -9 -13 -9 -29 0 -22 4 -27 18 -24 14 4 16 0 12 -15 -2 -11 0 -23 6 -26 6 -4 11 0 11 8 0 9 5 16 11 16 6 0 8 -9 4 -20 -3 -11 -1 -28 5 -37 10 -16 11 -16 7 3 -3 12 -1 28 3 35 6 8 11 -1 16 -27 l8 -39 7 30 7 30 1 -35 c1 -32 20 -79 21 -55 1 6 5 -1 11 -13 5 -13 15 -22 21 -19 7 2 18 -3 25 -12 11 -14 12 -14 13 2 0 15 2 15 20 -3 11 -11 27 -20 35 -20 8 0 15 -5 15 -11 0 -5 4 -8 9 -4 5 3 12 1 16 -5 3 -5 11 -10 16 -10 6 0 8 4 4 9 -3 5 -1 12 5 16 9 6 14 -6 11 -30 0 -6 8 -16 19 -23 17 -10 20 -10 20 4 0 10 9 5 26 -15 14 -17 30 -28 36 -25 5 3 18 -2 29 -12 10 -9 19 -13 19 -9 0 4 9 0 20 -10 12 -10 18 -25 15 -32 -3 -9 0 -11 6 -7 7 4 21 -4 31 -17 14 -17 18 -19 14 -6 -5 14 -2 16 13 8 12 -7 22 -6 29 1 19 19 15 -18 -5 -48 -14 -23 -15 -27 -1 -41 9 -8 37 -18 62 -20 40 -5 46 -3 47 13 0 17 1 17 9 -2 15 -37 59 -64 106 -64 68 0 94 39 52 76 -23 19 -58 21 -58 3 0 -10 -50 -12 -74 -3 -21 8 -20 24 2 24 21 1 52 23 52 39 0 6 11 11 25 11 14 0 25 5 25 10 0 34 88 91 145 95 6 0 28 11 49 23 28 16 37 19 33 8 -13 -33 24 -2 39 33 14 32 17 34 24 16 5 -11 9 -14 9 -7 1 6 7 12 14 12 7 0 24 18 37 41 14 22 31 47 38 54 6 7 12 18 12 23 0 5 6 22 14 36 10 19 11 38 5 64 -11 49 -11 64 1 57 6 -3 10 -19 10 -36 0 -41 16 -36 29 9 10 34 10 35 6 4 -5 -36 18 -72 47 -72 10 0 18 -4 18 -10 0 -5 -4 -10 -10 -10 -6 0 -5 -11 2 -27 15 -36 32 -55 24 -28 -3 11 -1 27 4 35 7 11 10 6 11 -20 1 -19 3 -27 6 -17 6 22 14 22 41 -3 18 -17 20 -25 12 -46 -13 -32 -13 -44 0 -44 6 0 10 14 10 30 0 35 15 40 24 8 5 -19 8 -20 16 -8 8 13 13 13 31 2 11 -7 22 -12 22 -10 25 52 45 60 40 16 l-4 -33 15 25 c15 25 20 21 17 -12 -3 -21 15 -24 23 -5 3 6 5 1 4 -13 -3 -31 10 -53 24 -44 7 5 9 1 5 -9 -3 -9 -2 -19 3 -22 6 -4 10 -23 10 -44 0 -20 4 -41 8 -46 14 -16 30 -85 41 -174 11 -89 17 -104 30 -82 6 9 8 5 8 -13 1 -27 -12 -35 -20 -13 -3 6 -6 2 -6 -10 -1 -16 3 -21 14 -17 9 4 15 0 15 -10 0 -9 -5 -16 -11 -16 -8 0 -8 -5 1 -15 9 -11 9 -15 1 -15 -14 0 -3 -52 13 -62 8 -5 7 -13 -1 -28 -7 -11 -13 -33 -13 -48 0 -38 -27 -220 -35 -232 -5 -9 -6 -253 -1 -367 1 -29 -1 -53 -5 -53 -7 0 -19 -73 -25 -160 -3 -30 -9 -68 -14 -83 -5 -15 -7 -34 -4 -41 3 -8 1 -17 -5 -21 -6 -3 -11 -16 -11 -28 0 -12 -5 -40 -11 -61 -8 -29 -13 -36 -20 -25 -6 10 -9 6 -9 -14 0 -28 -26 -85 -44 -98 -5 -4 -5 -12 -1 -19 5 -9 4 -11 -4 -6 -6 4 -14 0 -19 -11 -15 -39 -67 -120 -101 -158 -47 -55 -87 -75 -125 -64 -18 5 -34 5 -42 -2 -6 -5 -26 -11 -43 -14 -28 -3 -31 -1 -31 23 0 15 -5 34 -10 42 -8 12 -10 10 -10 -10 -1 -32 -37 -76 -74 -90 -24 -9 -27 -8 -22 5 7 19 -8 19 -24 0 -16 -20 -40 -19 -40 1 0 10 -7 14 -22 12 -14 -2 -22 2 -20 10 1 6 -2 12 -8 12 -5 0 -10 -4 -10 -10 0 -5 -7 -10 -16 -10 -8 0 -13 4 -9 9 3 5 1 13 -5 16 -8 5 -7 11 1 21 21 26 -9 15 -37 -12 -19 -20 -28 -24 -34 -14 -4 7 -13 9 -19 6 -6 -4 -11 -2 -11 3 0 6 -5 11 -11 11 -7 0 -18 8 -26 18 -13 15 -14 15 -10 -10 4 -25 2 -27 -21 -23 -29 5 -28 4 -36 32 -6 18 -4 22 7 17 8 -3 18 0 23 7 5 8 3 10 -6 4 -10 -6 -12 -4 -7 8 3 10 2 17 -4 17 -5 0 -3 14 6 30 9 17 19 30 24 30 5 0 11 10 14 23 5 19 3 18 -19 -8 -13 -16 -30 -42 -36 -57 -14 -30 -48 -44 -60 -25 -6 9 -8 9 -8 0 0 -20 -55 -44 -68 -31 -8 8 -13 4 -18 -15 -3 -15 -11 -24 -16 -21 -6 4 -15 0 -20 -7 -7 -10 -8 -6 -4 12 8 37 -19 60 -28 24 -7 -26 -20 -33 -31 -15 -10 17 -24 2 -18 -20 4 -14 0 -20 -11 -20 -9 0 -16 5 -16 11 0 5 -4 7 -10 4 -5 -3 -10 -1 -10 5 0 6 -5 8 -12 4 -7 -4 -8 -3 -4 4 4 7 4 17 0 23 -4 8 -9 7 -15 -2 -7 -11 -9 -10 -9 4 0 16 -3 15 -24 -5 -13 -13 -22 -26 -19 -30 7 -12 -50 20 -57 33 -6 8 -11 5 -19 -10 -7 -11 -18 -21 -26 -21 -7 0 -21 -7 -30 -16 -10 -10 -20 -13 -28 -7 -17 13 -70 15 -62 3 3 -6 1 -10 -4 -10 -6 0 -11 4 -11 9 0 5 -9 11 -20 14 -11 3 -20 1 -20 -3 0 -5 -8 -11 -17 -13 -10 -3 -5 -5 12 -6 40 -1 83 -30 64 -42 -27 -17 -68 -10 -84 15 -10 15 -28 25 -50 28 -18 2 -32 1 -29 -3 7 -13 -26 -39 -49 -39 -12 0 -40 14 -61 30 -41 31 -56 31 -56 -1 0 -16 -6 -19 -37 -17 -50 3 -91 43 -102 100 -8 39 -9 40 -10 11 -1 -17 4 -44 9 -59 14 -37 5 -42 -15 -7 l-16 28 7 -35 6 -35 -21 19 c-11 11 -21 31 -21 45 -1 25 -1 25 -15 -6 -13 -31 -15 -32 -44 -22 -17 6 -31 14 -31 19 0 4 -10 20 -22 35 -13 16 -43 65 -68 110 -25 46 -57 102 -72 126 -25 43 -52 132 -29 99 9 -13 11 -13 11 -1 0 8 -10 25 -22 38 -19 20 -19 23 -4 23 9 0 14 5 11 10 -6 10 -16 92 -16 135 0 10 -5 25 -10 31 -7 9 -7 19 0 32 8 15 7 21 -4 26 -18 7 -20 37 -2 55 10 11 10 13 0 7 -16 -9 -18 161 -3 226 5 24 21 90 34 148 26 109 27 189 8 324 -5 33 -6 75 -1 95 4 19 6 37 3 40 -2 2 -4 -1 -4 -8 0 -7 -5 -9 -10 -6 -6 4 -7 13 -2 23 10 21 9 159 -2 190 -4 12 -3 22 2 22 5 0 8 15 6 33 -3 31 -3 31 12 12 15 -19 16 -18 9 15 -4 19 -4 32 0 28 14 -13 32 26 31 65 -1 20 1 37 4 37 7 0 40 138 40 168 0 12 4 30 9 40 5 9 22 45 38 80 15 34 31 62 35 62 4 0 5 -8 1 -17 -4 -12 2 -9 15 7 19 23 21 23 16 4 -3 -12 -2 -24 3 -27 5 -3 8 6 7 20 0 13 -7 29 -15 34 -16 10 -8 12 15 3 10 -4 16 -19 17 -38 1 -17 3 -23 6 -13 3 10 10 29 18 43 10 20 14 22 18 9 4 -8 2 -15 -3 -15 -6 0 -10 -4 -10 -10 0 -5 7 -10 15 -10 10 0 15 -10 16 -27 l1 -28 13 30 c11 25 11 30 -1 33 -18 4 -18 20 1 56 11 21 12 31 4 36 -6 4 1 8 16 8 23 0 26 -3 20 -26 -5 -21 -4 -23 7 -14 8 6 15 23 16 38 1 15 4 29 6 31 8 8 36 -10 36 -24 0 -13 3 -13 15 -3 8 7 14 20 13 29 -2 11 3 15 17 14 11 -1 14 0 8 3 -7 3 -13 12 -13 20 0 19 30 6 30 -15 1 -13 2 -13 11 3 7 11 8 21 2 25 -12 8 -14 51 -2 51 6 0 7 6 3 13 -4 6 2 4 12 -6 13 -12 16 -20 8 -25 -9 -5 -8 -10 2 -19 8 -8 15 -9 19 -3 3 6 2 10 -4 10 -6 0 -7 8 -4 18 10 27 40 62 47 55 11 -11 6 -23 -9 -23 -8 0 -15 -5 -15 -11 0 -5 4 -8 9 -5 5 4 11 1 13 -4 2 -7 11 -4 23 5 14 12 16 18 8 21 -7 3 -13 12 -13 20 0 8 -5 14 -10 14 -15 0 6 36 25 44 9 3 13 2 10 -4 -3 -6 -2 -10 3 -10 5 0 13 10 19 21 9 21 10 21 25 -11 9 -19 18 -28 22 -21 4 6 0 18 -8 27 -18 18 -21 61 -5 101 7 19 7 29 0 31 -6 2 -11 8 -11 13 0 6 4 8 9 5 5 -4 7 4 3 16 -3 14 -2 19 7 14 6 -4 17 -1 25 6 7 7 25 23 39 35 22 18 25 27 20 62 -5 40 7 56 23 29 5 -7 3 -8 -6 -3 -8 5 -11 4 -6 -3 9 -15 36 -3 36 17 1 14 2 13 11 -2 8 -13 8 -22 1 -29 -6 -6 -8 -17 -5 -25 4 -10 10 -7 23 14 17 27 17 29 -4 53 -11 14 -14 19 -7 13 10 -9 18 -9 26 -3z m650 -60 c3 -5 2 -10 -4 -10 -5 0 -13 5 -16 10 -3 6 -2 10 4 10 5 0 13 -4 16 -10z m-845 -39 c-13 -25 -27 -34 -34 -22 -4 5 4 17 16 25 29 20 31 20 18 -3z m90 2 c0 -7 -6 -13 -13 -13 -8 0 -22 -9 -32 -20 -20 -22 -49 -27 -42 -7 2 6 9 11 15 10 6 -2 19 8 29 20 19 26 43 31 43 10z m1672 -45 c-7 -7 -12 -8 -12 -2 0 14 12 26 19 19 2 -3 -1 -11 -7 -17z m-1781 -36 c-6 -11 -8 -22 -4 -25 3 -3 -2 -13 -10 -22 -10 -9 -18 -11 -22 -5 -3 5 -2 10 4 10 6 0 8 7 4 15 -3 9 3 25 12 35 22 24 31 19 16 -8z m-551 -52 c0 -5 -2 -10 -4 -10 -3 0 -8 5 -11 10 -3 6 -1 10 4 10 6 0 11 -4 11 -10z m570 -10 c0 -5 -5 -10 -11 -10 -5 0 -7 5 -4 10 3 6 8 10 11 10 2 0 4 -4 4 -10z m-56 -47 c-7 -30 -24 -55 -24 -36 0 17 18 63 25 63 3 0 2 -12 -1 -27z m1236 13 c0 -3 -4 -8 -10 -11 -5 -3 -10 -1 -10 4 0 6 5 11 10 11 6 0 10 -2 10 -4z m-1273 -48 c-3 -8 -6 -5 -6 6 -1 11 2 17 5 13 3 -3 4 -12 1 -19z m-22 -48 c-3 -5 -10 -10 -16 -10 -5 0 -9 5 -9 10 0 6 7 10 16 10 8 0 12 -4 9 -10z m191 -85 c9 -8 11 -15 6 -15 -5 0 -15 7 -22 15 -7 8 -9 15 -6 15 4 0 14 -7 22 -15z m-719 -27 c1 -26 -1 -29 -7 -13 -6 17 -3 45 5 45 1 0 2 -15 2 -32z m2473 28 c0 -3 -4 -8 -10 -11 -5 -3 -10 -1 -10 4 0 6 5 11 10 11 6 0 10 -2 10 -4z m-2065 -53 c-5 -10 -7 -24 -6 -30 3 -19 -16 -16 -23 3 -4 10 1 25 10 36 20 21 30 17 19 -9z m327 -8 c3 -13 1 -22 -3 -19 -9 5 -13 44 -5 44 2 0 6 -11 8 -25z m1748 9 c0 -8 -5 -12 -10 -9 -6 4 -8 11 -5 16 9 14 15 11 15 -7z m-2150 -9 c7 -9 8 -15 2 -15 -5 0 -12 7 -16 15 -3 8 -4 15 -2 15 2 0 9 -7 16 -15z m460 -37 c0 -5 -4 -6 -10 -3 -5 3 -10 13 -10 21 0 8 -4 14 -10 14 -5 0 -10 6 -10 13 1 14 40 -30 40 -45z m-496 23 c3 -5 -1 -14 -8 -20 -12 -10 -13 -8 -9 8 6 23 9 25 17 12z m1636 -78 c-11 -17 -11 -17 -6 0 3 10 6 24 7 30 0 9 2 9 5 0 3 -7 0 -20 -6 -30z m-1250 17 c0 -5 -4 -10 -10 -10 -5 0 -10 5 -10 10 0 6 5 10 10 10 6 0 10 -4 10 -10z m-414 -37 c-11 -11 -17 4 -9 23 7 18 8 18 11 1 2 -10 1 -21 -2 -24z m-89 2 c-23 -22 -33 -18 -12 5 10 11 20 18 23 16 2 -3 -3 -12 -11 -21z m2295 -52 c19 -17 25 -63 7 -63 -6 0 -8 9 -4 20 5 14 2 20 -10 20 -9 0 -14 -4 -10 -9 3 -5 1 -12 -4 -15 -5 -3 -11 1 -15 9 -3 8 0 15 5 15 6 0 9 9 6 20 -6 24 1 25 25 3z m-1612 -147 c0 -6 -7 -2 -15 8 -8 11 -15 25 -15 30 0 6 7 2 15 -8 8 -11 15 -25 15 -30z m-50 13 c0 -6 -4 -7 -10 -4 -5 3 -10 11 -10 16 0 6 5 7 10 4 6 -3 10 -11 10 -16z m475 -3 c2 -6 6 -28 10 -48 5 -35 5 -37 -22 -35 -35 3 -43 32 -11 41 l23 6 -27 25 c-16 13 -28 26 -28 28 0 9 52 -7 55 -17z m-460 -34 c-3 -3 -11 0 -18 7 -9 10 -8 11 6 5 10 -3 15 -9 12 -12z m-855 -102 c0 -5 -4 -10 -10 -10 -5 0 -10 5 -10 10 0 6 5 10 10 10 6 0 10 -4 10 -10z m1144 -36 c3 -8 2 -12 -4 -9 -6 3 -10 10 -10 16 0 14 7 11 14 -7z m-1184 -94 c0 -5 -4 -10 -10 -10 -5 0 -10 5 -10 10 0 6 5 10 10 10 6 0 10 -4 10 -10z m44 -27 c-5 -45 -14 -56 -14 -20 0 15 -6 27 -12 27 -8 0 -5 7 6 15 26 20 26 20 20 -22z m2522 -99 c-4 -9 -9 -15 -11 -12 -3 3 -3 13 1 22 4 9 9 15 11 12 3 -3 3 -13 -1 -22z m-26 -238 c0 -3 -4 -8 -10 -11 -5 -3 -10 -1 -10 4 0 6 5 11 10 11 6 0 10 -2 10 -4z m-10 -109 c0 -5 -4 -5 -10 -2 -5 3 -10 14 -10 23 0 15 2 15 10 2 5 -8 10 -19 10 -23z m-2645 -592 c7 -16 5 -18 -5 -8 -7 7 -15 38 -16 70 l-3 58 8 -50 c5 -27 12 -59 16 -70z m92 -127 c-3 -8 -6 -5 -6 6 -1 11 2 17 5 13 3 -3 4 -12 1 -19z m-45 -28 c-6 -41 -12 -38 -12 6 0 19 4 33 8 30 5 -3 7 -19 4 -36z m2538 20 c0 -5 -5 -10 -11 -10 -5 0 -7 5 -4 10 3 6 8 10 11 10 2 0 4 -4 4 -10z m-2555 -90 c19 -38 19 -43 -3 -29 -10 6 -19 22 -20 35 -2 32 4 30 23 -6z m1845 -684 c0 -3 -4 -8 -10 -11 -5 -3 -10 -1 -10 4 0 6 5 11 10 11 6 0 10 -2 10 -4z m-1016 -16 c14 -5 26 -15 26 -22 0 -9 -3 -9 -11 2 -8 11 -12 12 -16 3 -7 -19 -20 -16 -26 7 -6 23 -6 23 27 10z m-94 -70 c0 -5 -5 -10 -11 -10 -5 0 -7 5 -4 10 3 6 8 10 11 10 2 0 4 -4 4 -10z m-324 -235 c10 -8 14 -15 8 -15 -5 0 -19 7 -30 15 -10 8 -14 15 -8 15 5 0 19 -7 30 -15z m1565 -62 c-12 -20 -14 -14 -5 12 4 9 9 14 11 11 3 -2 0 -13 -6 -23z"/>
 <path d="M3066 5561 c-3 -5 1 -14 8 -20 12 -10 13 -8 9 8 -6 23 -9 25 -17 12z"/>
 <path d="M3716 5474 c-5 -14 -4 -15 9 -4 17 14 19 20 6 20 -5 0 -12 -7 -15 -16z"/>
 <path d="M3790 5465 c-11 -13 -10 -14 4 -9 9 3 16 10 16 15 0 13 -6 11 -20 -6z"/>
 <path d="M2775 5436 c-20 -15 -20 -15 3 -16 12 0 22 5 22 10 0 12 22 9 33 -5 5 -6 7 -4 4 5 -5 21 -38 24 -62 6z"/>
 <path d="M3224 5386 c-3 -8 -4 -23 -2 -33 3 -11 6 -6 9 15 6 34 2 42 -7 18z"/>
 <path d="M3491 5369 c-6 -17 -15 -28 -21 -24 -5 3 -10 2 -10 -4 0 -6 -6 -8 -14 -5 -8 3 -12 13 -10 22 5 15 4 15 -6 0 -14 -22 -34 -24 -26 -2 3 8 2 12 -4 9 -6 -3 -10 -12 -10 -20 0 -8 -5 -17 -12 -21 -8 -5 -9 -2 -5 9 3 10 2 17 -3 17 -6 0 -10 -7 -10 -16 0 -10 -5 -14 -15 -10 -8 3 -22 9 -30 12 -8 3 -15 2 -15 -4 0 -6 6 -13 13 -15 10 -4 10 -6 0 -6 -7 -1 -13 -8 -13 -17 0 -14 -1 -14 -16 0 -25 26 -43 20 -42 -14 1 -18 6 -30 15 -30 15 0 16 -9 3 -30 -6 -10 -10 -11 -10 -2 0 6 -7 12 -14 12 -12 0 -13 -6 -4 -31 8 -22 13 -27 19 -18 6 10 11 7 19 -11 l10 -25 -3 28 c-6 37 7 34 27 -8 17 -36 34 -49 22 -18 -6 14 -2 12 17 -5 13 -12 27 -22 33 -22 5 0 4 4 -2 8 -15 10 -26 59 -15 66 5 4 12 -7 16 -24 4 -17 11 -28 16 -24 5 3 12 -2 15 -10 10 -26 24 -18 24 13 0 17 4 32 8 35 5 3 6 -8 4 -25 -4 -24 -1 -28 12 -23 9 3 27 -1 41 -10 15 -10 24 -12 23 -5 -2 6 3 14 10 16 6 3 12 -1 12 -9 0 -11 2 -11 9 1 6 10 13 11 29 2 17 -9 22 -8 27 7 3 11 17 30 32 43 14 13 22 17 18 9 -8 -13 -7 -13 9 -1 15 13 19 13 27 0 6 -10 9 -7 9 13 0 14 -6 28 -12 31 -10 4 -10 7 0 18 15 16 16 79 1 79 -6 0 -9 -9 -6 -20 3 -11 1 -20 -4 -20 -5 0 -9 -8 -9 -17 -1 -11 -8 -4 -18 17 -13 25 -24 35 -40 34 -12 0 -22 5 -22 11 0 6 -12 22 -26 34 l-26 23 6 -34 c3 -18 3 -27 0 -20 -8 17 -24 15 -24 -4 0 -8 -5 -12 -11 -8 -6 4 -8 20 -4 40 7 42 0 44 -14 3z m-94 -71 c-3 -8 -6 -5 -6 6 -1 11 2 17 5 13 3 -3 4 -12 1 -19z m-57 -23 c0 -14 -4 -25 -9 -25 -4 0 -6 11 -3 25 2 14 6 25 8 25 2 0 4 -11 4 -25z m190 -40 c-6 -19 -15 -37 -19 -39 -4 -3 0 17 8 44 9 27 17 44 19 39 2 -5 -2 -25 -8 -44z m-24 -81 c-4 -9 -9 -15 -11 -12 -3 3 -3 13 1 22 4 9 9 15 11 12 3 -3 3 -13 -1 -22z m84 6 c0 -5 -5 -10 -11 -10 -5 0 -7 5 -4 10 3 6 8 10 11 10 2 0 4 -4 4 -10z"/>
 <path d="M2844 5365 c-4 -8 -16 -15 -29 -15 -24 0 -36 -18 -34 -53 1 -20 2 -20 8 3 4 14 18 30 31 37 22 11 48 43 35 43 -3 0 -8 -7 -11 -15z"/>
 <path d="M3600 5349 c0 -5 5 -7 10 -4 6 3 10 8 10 11 0 2 -4 4 -10 4 -5 0 -10 -5 -10 -11z"/>
 <path d="M3164 5308 c3 -15 26 -23 26 -8 0 6 -4 9 -9 6 -5 -4 -12 -1 -14 4 -3 6 -4 5 -3 -2z"/>
 <path d="M3136 5274 c-9 -24 -7 -27 9 -10 17 17 19 26 6 26 -5 0 -12 -7 -15 -16z"/>
 <path d="M3180 5271 c0 -5 5 -13 10 -16 6 -3 10 -2 10 4 0 5 -4 13 -10 16 -5 3 -10 2 -10 -4z"/>
 <path d="M2680 5245 c0 -8 5 -15 10 -15 6 0 10 7 10 15 0 8 -4 15 -10 15 -5 0 -10 -7 -10 -15z"/>
 <path d="M2730 5240 c0 -5 5 -10 10 -10 6 0 10 5 10 10 0 6 -4 10 -10 10 -5 0 -10 -4 -10 -10z"/>
 <path d="M3170 5207 c0 -2 14 -16 31 -33 18 -17 28 -22 24 -12 -6 14 -55 55 -55 45z"/>
 <path d="M3830 5185 c-8 -9 -8 -15 -2 -15 12 0 26 19 19 26 -2 2 -10 -2 -17 -11z"/>
 <path d="M2610 5170 c0 -5 4 -10 9 -10 4 0 6 -12 3 -26 -3 -19 -1 -25 7 -20 6 4 11 2 11 -5 0 -7 2 -10 5 -8 8 8 -15 79 -25 79 -6 0 -10 -4 -10 -10z"/>
 <path d="M2710 5122 c0 -11 7 -22 15 -26 8 -3 15 -1 15 5 0 6 -7 17 -15 25 -13 14 -15 13 -15 -4z"/>
 <path d="M2550 5079 c0 -5 5 -7 10 -4 6 3 10 8 10 11 0 2 -4 4 -10 4 -5 0 -10 -5 -10 -11z"/>
 <path d="M2467 5026 c-4 -10 -7 -25 -6 -34 0 -11 4 -9 10 7 5 13 8 29 6 35 -2 5 -6 2 -10 -8z"/>
 <path d="M2300 4896 c0 -8 4 -17 9 -20 5 -4 7 3 4 14 -6 23 -13 26 -13 6z"/>
 <path d="M4317 4753 c-4 -3 -7 -11 -7 -17 0 -6 5 -5 12 2 6 6 9 14 7 17 -3 3 -9 2 -12 -2z"/>
 <path d="M3104 4489 c-12 -21 31 -64 74 -73 35 -7 49 -5 89 15 51 27 58 36 43 59 -9 13 -12 13 -21 -2 -13 -22 -77 -24 -105 -3 -23 17 -70 20 -80 4z"/>
 <path d="M2677 3830 c-16 -13 -33 -34 -38 -47 -9 -25 -10 -25 -36 -7 -15 9 -34 26 -43 36 -8 10 -33 20 -54 23 l-39 5 33 -35 c56 -58 138 -94 237 -106 48 -6 102 -14 118 -18 30 -8 30 -8 -14 -16 -39 -7 -42 -9 -22 -16 40 -15 146 6 186 38 52 42 44 58 -15 28 -41 -21 -37 -12 15 36 25 23 45 48 45 55 0 17 -16 18 -26 3 -3 -6 -17 -9 -30 -6 -17 3 -24 0 -24 -10 0 -9 -6 -13 -14 -10 -8 3 -28 -7 -45 -24 -42 -39 -58 -37 -71 11 -19 70 -109 103 -163 60z m131 -46 c-10 -10 -28 6 -28 24 0 15 1 15 17 -1 9 -9 14 -19 11 -23z m-108 -48 c0 -3 -4 -8 -10 -11 -5 -3 -10 -1 -10 4 0 6 5 11 10 11 6 0 10 -2 10 -4z m90 -6 c0 -5 -4 -10 -10 -10 -5 0 -10 5 -10 10 0 6 5 10 10 10 6 0 10 -4 10 -10z"/>
 <path d="M2430 3802 c0 -12 61 -68 90 -82 17 -9 10 3 -25 39 -47 49 -65 61 -65 43z"/>
 <path d="M3608 3802 c-42 -2 -58 -7 -58 -17 0 -8 5 -17 10 -20 17 -10 11 -27 -7 -21 -33 10 -46 -8 -39 -55 5 -30 3 -45 -6 -51 -10 -6 -10 -8 0 -8 6 0 12 -4 12 -10 0 -5 -7 -10 -15 -10 -25 0 -17 -52 15 -89 22 -26 37 -34 62 -34 18 0 39 -4 46 -10 6 -5 12 -7 12 -3 0 3 24 -4 53 -15 54 -22 104 -32 170 -33 20 -1 37 -5 37 -10 0 -5 6 -3 14 4 8 6 23 10 33 9 10 -2 28 2 39 9 12 6 23 9 26 7 2 -3 18 -1 35 4 28 8 30 7 27 -16 -2 -23 -1 -24 19 -9 19 14 53 31 127 65 20 10 53 78 47 96 -9 21 -107 -12 -107 -37 0 -10 -8 -19 -17 -20 -51 -5 -253 -2 -253 3 0 4 -22 9 -50 13 -34 5 -50 11 -50 21 0 8 -8 15 -17 15 -33 1 10 19 50 22 49 3 38 14 -21 21 -53 6 -102 25 -102 40 0 5 15 6 38 2 111 -21 283 9 345 61 27 23 47 30 47 18 0 -31 -74 -88 -153 -115 l-52 -19 45 6 c51 6 182 63 175 75 -3 4 -2 9 3 11 15 6 52 60 47 69 -7 10 -37 0 -47 -15 -5 -8 -8 -7 -8 1 0 7 9 18 20 25 31 20 24 26 -27 23 -27 -1 -63 -3 -82 -4 -33 -1 -34 -1 -16 -21 10 -11 14 -21 9 -21 -5 -1 -18 -3 -29 -4 -11 -2 -28 -6 -37 -10 -12 -5 -18 -3 -18 6 -1 8 -9 25 -20 37 -18 21 -26 23 -78 20 -33 -3 -65 -8 -72 -13 -18 -11 -41 -71 -34 -89 9 -24 -19 -20 -43 7 -26 28 -32 48 -22 68 11 21 -6 25 -83 21z m17 -22 c3 -5 -1 -10 -10 -10 -9 0 -13 5 -10 10 3 6 8 10 10 10 2 0 7 -4 10 -10z m47 -5 c0 -5 -5 -11 -11 -13 -6 -2 -11 4 -11 13 0 9 5 15 11 13 6 -2 11 -8 11 -13z m138 1 c0 -2 -7 -9 -15 -16 -13 -11 -14 -10 -9 4 5 14 24 23 24 12z m-4 -82 c-5 -14 -9 -14 -22 -3 -14 12 -14 14 3 20 23 8 27 4 19 -17z"/>
 <path d="M2350 3611 c0 -15 29 -33 57 -36 16 -1 36 -6 46 -10 9 -4 24 -5 32 -1 8 3 15 4 15 3 0 -1 -4 -18 -10 -36 -7 -27 -7 -32 2 -23 9 9 15 5 24 -17 14 -33 66 -61 104 -57 14 2 31 4 38 5 7 0 10 6 7 12 -4 6 -1 9 6 8 8 -2 31 3 51 10 28 9 42 9 58 1 22 -12 60 -5 60 11 0 5 26 9 58 8 65 -3 112 8 112 25 0 6 14 17 30 23 17 6 30 16 30 22 0 32 -92 40 -190 16 -36 -9 -96 -20 -135 -25 -86 -11 -103 -14 -111 -22 -8 -8 -95 21 -116 40 -10 8 -24 12 -32 9 -8 -3 -17 1 -20 8 -3 9 -18 14 -41 13 -20 -1 -41 4 -47 10 -14 14 -28 16 -28 3z m248 -106 c12 -4 22 -12 22 -17 0 -5 5 -6 10 -3 6 3 10 1 10 -5 0 -6 -12 -16 -26 -22 -23 -11 -29 -10 -45 11 -11 13 -19 17 -19 10 0 -18 -23 5 -26 26 -2 15 27 15 74 0z"/>
 <path d="M3875 3610 c3 -5 8 -10 11 -10 2 0 4 5 4 10 0 6 -5 10 -11 10 -5 0 -7 -4 -4 -10z"/>
 <path d="M3928 3413 c7 -3 16 -2 19 1 4 3 -2 6 -13 5 -11 0 -14 -3 -6 -6z"/>
 <path d="M3180 2692 c0 -17 21 -25 31 -13 5 6 6 9 3 6 -4 -3 -13 0 -21 6 -9 8 -13 8 -13 1z"/>
 <path d="M3778 2653 c7 -3 16 -2 19 1 4 3 -2 6 -13 5 -11 0 -14 -3 -6 -6z"/>
 <path d="M2470 2611 c0 -6 5 -13 10 -16 6 -3 10 1 10 9 0 9 -4 16 -10 16 -5 0 -10 -4 -10 -9z"/>
 <path d="M3590 7231 c0 -6 4 -13 10 -16 6 -3 7 1 4 9 -7 18 -14 21 -14 7z"/>
 <path d="M3480 7213 c0 -5 7 -18 15 -29 12 -16 14 -16 15 -3 0 9 -7 22 -15 29 -8 7 -15 8 -15 3z"/>
 <path d="M3000 7173 c0 -10 4 -24 9 -32 6 -9 9 -5 9 13 0 15 -4 29 -9 32 -5 3 -9 -3 -9 -13z"/>
 <path d="M2612 6698 c1 -26 5 -35 15 -31 16 6 16 5 -2 39 l-15 29 2 -37z"/>
 <path d="M2500 6601 c0 -6 -10 -12 -22 -12 -17 -1 -18 -3 -6 -6 23 -6 55 12 39 21 -6 4 -11 2 -11 -3z"/>
 <path d="M2410 6469 c0 -11 4 -18 10 -14 5 3 7 12 3 20 -7 21 -13 19 -13 -6z"/>
 <path d="M2358 6423 c7 -3 16 -2 19 1 4 3 -2 6 -13 5 -11 0 -14 -3 -6 -6z"/>
 <path d="M2364 6379 c-3 -6 -1 -16 5 -22 8 -8 11 -5 11 11 0 24 -5 28 -16 11z"/>
 <path d="M2246 6131 c-3 -5 1 -11 9 -15 9 -3 15 0 15 9 0 16 -16 20 -24 6z"/>
 <path d="M2226 6015 c-3 -9 -6 -22 -5 -28 0 -7 5 -1 10 12 5 13 8 26 5 28 -2 2 -6 -3 -10 -12z"/>
 <path d="M4490 5726 c0 -9 30 -14 35 -6 4 6 -3 10 -14 10 -12 0 -21 -2 -21 -4z"/>
 <path d="M4559 5675 c-1 -8 -3 -19 -4 -25 -1 -5 -3 -13 -4 -17 -1 -5 -8 1 -16 11 -8 11 -15 16 -15 10 0 -15 14 -30 33 -37 14 -5 17 0 17 33 0 38 -9 57 -11 25z"/>
 <path d="M4553 5565 c-3 -9 -3 -18 -1 -21 3 -3 8 4 11 16 6 23 -1 27 -10 5z"/>
 <path d="M2116 5473 c-6 -14 -5 -15 5 -6 7 7 10 15 7 18 -3 3 -9 -2 -12 -12z"/>
 <path d="M2050 5334 c0 -3 7 -12 15 -20 13 -13 15 -13 15 -1 0 8 -7 17 -15 21 -8 3 -15 3 -15 0z"/>
 <path d="M2017 4976 c-4 -10 -1 -13 8 -9 8 3 12 9 9 14 -7 12 -11 11 -17 -5z"/>
 <path d="M1812 4233 c-15 -37 -22 -163 -8 -163 5 0 19 9 31 20 20 19 21 25 12 83 -12 82 -21 97 -35 60z"/>
 <path d="M4750 4147 c-6 -40 -13 -77 -15 -84 -2 -6 7 -19 21 -28 19 -12 29 -13 45 -4 19 10 21 17 15 62 -17 131 -49 158 -66 54z"/>
 </g>
<g id="layer2" fill="#d2d2d2" stroke="none">
 <path d="M0 3770 l0 -3770 3200 0 3200 0 0 3614 0 3615 -50 -34 c-31 -21 -77 -39 -122 -50 -72 -16 -315 -82 -413 -113 -27 -8 -78 -28 -112 -44 -34 -15 -64 -28 -67 -28 -4 0 -25 -9 -49 -19 -23 -10 -62 -26 -87 -34 -52 -18 -309 -137 -345 -161 -13 -9 -28 -16 -33 -16 -4 0 -34 -22 -67 -50 -81 -68 -116 -84 -176 -76 -55 7 -86 -5 -143 -55 -28 -24 -43 -30 -72 -27 l-37 3 39 25 c46 30 50 44 30 112 -29 98 -104 216 -201 313 -100 101 -148 130 -346 209 -138 55 -226 78 -414 111 -172 29 -263 34 -276 14 -7 -12 -9 -11 -9 2 0 11 -8 15 -27 14 -16 -1 -48 -3 -73 -3 -34 -2 -41 -5 -32 -14 7 -7 28 -12 47 -12 19 0 29 -3 23 -7 -7 -5 -9 -11 -5 -15 3 -4 13 -1 21 6 17 13 78 21 70 8 -3 -4 -14 -8 -25 -8 -13 0 -18 -4 -13 -12 5 -8 2 -9 -10 -5 -12 5 -16 3 -14 -5 3 -7 22 -15 43 -18 31 -4 36 -7 24 -17 -11 -9 -22 -7 -51 7 -21 10 -38 15 -38 11 0 -4 -9 -7 -20 -7 -11 0 -20 6 -20 13 0 8 -11 12 -27 12 -28 -2 -28 -2 -3 -7 23 -4 24 -5 5 -13 -19 -7 -19 -8 3 -8 12 -1 22 -4 22 -8 0 -5 4 -14 9 -22 8 -12 12 -12 25 -2 14 11 16 11 16 -3 0 -10 4 -14 10 -11 6 3 10 2 10 -4 0 -6 12 -8 30 -5 18 4 36 1 45 -6 10 -9 19 -9 28 -2 6 5 23 12 37 14 14 1 28 7 31 11 3 5 9 2 12 -7 5 -11 1 -16 -13 -16 -11 0 -20 -4 -20 -9 0 -5 17 -8 37 -6 21 2 46 -1 56 -7 15 -7 22 -7 28 3 6 10 9 11 9 2 0 -7 -1 -15 -2 -16 -5 -7 25 -37 36 -37 6 0 5 4 -3 9 -8 5 -9 11 -3 15 12 7 24 -22 15 -37 -4 -7 1 -6 10 2 9 7 17 9 17 3 0 -5 11 -13 25 -16 14 -4 25 -13 25 -21 0 -8 16 -22 35 -31 30 -14 35 -21 34 -48 -1 -17 2 -39 6 -49 9 -22 -17 -19 -27 3 -5 11 -7 9 -7 -7 -1 -19 4 -23 28 -23 36 0 63 9 56 20 -2 4 5 25 16 46 l20 39 -6 -39 c-5 -32 -4 -38 9 -33 22 9 20 -2 -3 -23 -18 -15 -19 -19 -5 -44 17 -35 18 -63 1 -69 -7 -3 -5 -6 6 -6 10 -1 17 -7 16 -13 -4 -33 2 -38 41 -34 22 2 46 9 55 16 8 7 15 8 15 3 0 -14 -35 -44 -43 -37 -3 3 -3 -3 0 -15 3 -11 11 -25 18 -31 7 -6 11 -20 8 -30 -7 -26 12 -25 38 1 26 26 32 21 15 -13 -16 -30 -10 -44 11 -26 11 8 17 8 26 -2 9 -10 9 -11 0 -6 -7 4 -13 2 -13 -4 0 -6 6 -13 14 -16 15 -6 31 -35 18 -33 -19 3 -23 -2 -12 -16 10 -12 16 -13 26 -4 8 6 14 17 14 24 0 8 9 10 25 7 19 -3 25 -10 24 -31 0 -25 0 -25 -9 -3 -10 23 -33 31 -28 10 1 -7 -3 -23 -10 -35 -8 -15 -9 -23 -2 -23 5 0 10 -7 10 -15 0 -8 11 -25 25 -37 13 -11 22 -25 18 -31 -3 -5 1 -13 8 -18 8 -5 17 -3 21 4 5 8 8 7 8 -5 0 -11 5 -15 14 -12 19 7 31 -15 16 -29 -10 -9 -12 -8 -6 6 4 13 2 17 -6 14 -7 -2 -21 0 -30 5 -19 9 -26 -6 -8 -17 7 -4 6 -13 -1 -27 -14 -26 7 -43 30 -25 12 10 13 9 1 -12 -7 -13 -12 -42 -12 -65 1 -22 -4 -46 -10 -53 -13 -17 -3 -44 15 -37 20 7 45 -26 55 -72 4 -21 12 -38 17 -37 11 2 28 -37 20 -45 -3 -3 -5 1 -6 9 0 8 -4 6 -9 -6 -8 -19 -9 -19 -9 2 -1 12 -5 24 -10 28 -5 3 -9 -10 -8 -28 1 -24 7 -33 20 -34 9 -1 17 3 17 8 0 6 5 7 10 4 6 -4 7 -12 1 -22 -9 -17 -3 -53 9 -53 6 0 11 -41 14 -128 1 -20 7 -34 17 -37 24 -8 41 -52 29 -75 -13 -24 -13 -33 0 -25 6 3 7 -1 4 -9 -3 -9 -10 -16 -16 -16 -5 0 -6 5 -3 10 3 6 2 10 -3 10 -14 0 -21 -23 -15 -53 4 -22 10 -26 33 -23 23 3 27 0 22 -18 l-5 -21 24 20 24 20 -17 -21 c-20 -23 -23 -44 -8 -44 5 0 7 -7 3 -16 -4 -11 -8 -12 -13 -4 -5 8 -9 3 -13 -11 -4 -13 -4 -25 -2 -28 3 -2 5 1 5 7 0 7 4 12 10 12 5 0 7 -7 3 -16 -5 -13 -2 -15 18 -9 l24 7 -22 -19 c-13 -11 -23 -24 -23 -29 0 -4 5 -3 12 4 7 7 20 12 30 12 18 0 18 -1 -2 -22 -11 -12 -17 -24 -14 -27 4 -3 9 0 11 7 3 6 9 10 14 6 5 -3 2 -13 -7 -22 -10 -9 -12 -18 -6 -20 5 -1 8 -17 5 -34 -4 -25 -2 -30 12 -24 11 4 14 2 9 -6 -4 -7 -8 -43 -9 -80 -1 -65 0 -70 25 -85 39 -23 62 -67 67 -133 6 -69 -9 -121 -50 -173 -24 -30 -32 -50 -35 -96 -3 -36 0 -61 7 -65 6 -4 11 -14 11 -23 0 -13 -3 -13 -15 -3 -17 15 -19 7 -5 -21 7 -13 7 -25 0 -38 -6 -12 -6 -22 -1 -25 5 -4 12 0 14 6 3 7 6 -20 6 -59 1 -73 6 -84 29 -61 9 9 12 9 12 0 0 -7 -4 -12 -8 -12 -5 0 -8 -21 -7 -47 1 -34 -5 -59 -22 -85 -13 -21 -20 -38 -16 -38 5 0 1 -5 -7 -9 -11 -7 -16 -32 -18 -99 -3 -84 -2 -91 24 -121 52 -62 70 -236 40 -389 -12 -63 -12 -73 0 -68 18 7 18 2 -2 -36 -9 -17 -17 -56 -19 -88 -1 -32 -6 -63 -9 -69 -4 -6 -5 -11 -1 -11 3 0 -2 -14 -10 -30 -9 -17 -13 -35 -10 -41 7 -10 -16 -51 -43 -78 -7 -8 -12 -25 -9 -38 2 -12 0 -23 -4 -23 -5 0 -9 -5 -9 -11 0 -5 4 -7 10 -4 14 9 12 -5 -10 -50 -10 -22 -16 -43 -14 -47 3 -5 0 -8 -7 -8 -7 0 -9 -3 -6 -7 4 -3 2 -12 -4 -20 -6 -7 -8 -13 -4 -13 5 0 0 -9 -10 -20 -9 -10 -15 -25 -12 -33 3 -7 -4 -24 -14 -38 -10 -13 -19 -31 -19 -40 0 -9 -7 -22 -15 -29 -8 -7 -15 -19 -15 -26 0 -8 -4 -14 -10 -14 -5 0 -10 -7 -10 -15 0 -8 -5 -15 -11 -15 -6 0 -9 -6 -6 -14 3 -7 0 -22 -7 -32 -18 -26 -9 -94 13 -94 14 -1 14 -2 -2 -14 -15 -11 -15 -15 -3 -25 15 -13 15 -21 -2 -64 -7 -16 -12 -32 -12 -36 0 -5 -7 -14 -15 -21 -9 -7 -13 -15 -11 -18 7 -6 -15 -27 -37 -35 -10 -4 -23 -20 -28 -36 -12 -35 -147 -146 -198 -162 -18 -6 -42 -18 -52 -27 -10 -8 -43 -26 -75 -39 -31 -12 -71 -33 -88 -46 -17 -12 -62 -33 -101 -46 -38 -12 -78 -27 -88 -32 -10 -5 -22 -7 -27 -4 -6 4 -10 1 -10 -4 0 -6 -11 -11 -24 -11 -14 0 -27 -4 -31 -9 -9 -16 -251 -35 -260 -21 -3 5 -18 2 -33 -5 -17 -8 -48 -12 -82 -9 -60 4 -96 5 -180 5 -30 0 -64 6 -75 13 -11 7 -38 19 -60 26 -39 13 -93 46 -107 65 -4 5 -10 6 -14 2 -4 -4 -16 1 -26 10 -18 16 -18 16 -12 0 8 -21 -9 -22 -26 -1 -8 8 -22 20 -33 26 -17 8 -19 8 -14 -5 4 -12 -9 -8 -52 13 -32 17 -63 30 -68 30 -6 0 -29 13 -51 30 -23 16 -49 30 -57 30 -8 0 -15 5 -15 10 0 6 -6 10 -14 10 -22 0 -67 40 -64 57 2 9 -4 18 -12 20 -13 4 -13 3 0 -6 8 -6 11 -11 6 -11 -5 0 -24 16 -41 35 -18 19 -35 32 -38 29 -8 -8 -67 38 -61 48 3 4 0 16 -5 25 -6 11 -11 13 -11 5 0 -29 -18 1 -35 62 -10 36 -22 63 -26 61 -9 -6 -21 24 -13 36 5 8 -22 66 -37 79 -16 15 -39 57 -39 73 0 10 -8 31 -19 45 -20 29 -37 92 -25 92 4 0 13 -8 20 -17 11 -15 13 -15 13 -3 0 18 -23 50 -36 50 -5 0 -9 23 -9 50 1 33 5 50 13 50 7 0 13 7 13 15 0 8 -5 15 -11 15 -5 0 -8 4 -4 9 3 5 1 12 -4 15 -5 4 -9 23 -9 44 0 43 -11 82 -23 82 -4 0 -7 8 -7 18 1 26 -11 82 -23 103 -8 15 -6 17 8 12 17 -7 17 -6 0 20 -11 16 -15 36 -12 47 4 11 3 20 -2 20 -4 0 -9 37 -11 83 -1 45 -7 98 -12 118 -6 20 -8 43 -5 51 3 8 1 26 -4 41 -8 21 -8 25 5 20 10 -4 12 0 8 11 -3 9 -1 16 4 16 7 0 9 20 7 52 -2 28 0 59 6 70 5 10 6 18 1 18 -5 0 -4 23 2 50 5 28 13 50 17 50 4 0 5 9 2 19 -3 13 4 28 20 43 47 43 54 47 65 36 16 -16 34 55 36 141 2 42 8 87 15 99 7 13 10 26 8 29 -3 2 -1 18 4 36 7 24 6 28 -4 18 -6 -6 -13 -16 -13 -22 -1 -5 -2 -13 -3 -19 -2 -18 -31 2 -52 37 -16 25 -19 37 -10 46 8 8 11 8 11 -2 0 -7 6 -11 14 -8 9 4 17 -2 21 -14 5 -16 10 -18 21 -8 20 17 18 24 -18 58 -26 24 -28 29 -12 28 16 -2 19 5 20 46 1 40 -2 47 -19 47 -17 0 -18 -5 -13 -37 5 -34 4 -35 -6 -15 -16 31 4 107 35 133 13 11 17 18 9 19 -10 0 -12 8 -7 29 4 19 0 41 -9 60 -23 44 -19 58 9 31 31 -29 35 -5 5 30 -20 23 -18 46 3 33 7 -4 5 2 -3 12 -11 14 -12 19 -2 22 6 3 12 12 12 21 0 13 -4 12 -20 -6 -11 -12 -20 -28 -20 -36 0 -8 -4 -17 -9 -21 -13 -7 -26 16 -14 24 10 6 28 52 24 60 -2 2 3 8 11 12 11 7 11 10 0 18 -10 6 -5 11 17 21 26 10 29 15 21 31 -9 15 -7 17 6 12 15 -5 16 0 9 42 -6 42 -5 47 8 37 12 -10 13 -8 9 13 -4 22 -7 24 -20 13 -13 -12 -14 -10 -3 11 7 12 10 32 8 43 -3 11 -2 31 3 43 6 16 5 25 -2 27 -6 2 4 12 23 21 28 14 27 22 -2 19 -4 -1 -5 8 -2 18 3 11 9 20 15 20 5 0 4 8 -2 19 -13 25 -13 41 1 41 5 0 7 -4 4 -10 -3 -6 1 -7 9 -4 10 4 16 17 15 33 l-1 26 -7 -25 c-4 -14 -10 -20 -13 -15 -8 14 -5 72 5 82 5 4 5 0 1 -10 -3 -9 -2 -17 4 -17 17 0 22 64 5 77 -10 8 -13 18 -7 30 8 19 11 29 13 53 1 12 5 11 18 -5 15 -20 15 -19 9 5 -3 14 -6 29 -6 34 0 5 -8 3 -17 -5 -16 -12 -16 -11 0 7 15 16 19 17 28 4 9 -12 10 -12 5 3 -3 10 -6 23 -6 28 0 6 -4 8 -9 5 -5 -3 -8 5 -7 18 1 18 4 22 14 14 9 -8 12 -6 12 5 0 8 -6 18 -12 21 -7 3 -3 3 10 0 23 -6 31 11 10 19 -10 4 -10 6 -1 6 8 1 11 11 7 30 -5 24 -3 29 12 28 13 -1 20 6 22 22 3 16 0 21 -8 16 -9 -6 -9 -2 -1 14 14 26 -3 29 -18 4 -6 -10 -11 -13 -11 -7 0 6 11 21 25 34 14 13 25 28 25 34 0 5 -7 1 -15 -10 -18 -23 -20 -12 -2 19 22 39 39 56 52 51 7 -3 17 7 23 25 10 28 9 30 -6 22 -14 -7 -18 -5 -18 10 0 10 4 19 8 19 5 0 6 10 3 23 -4 15 -1 28 9 36 9 8 16 25 16 38 0 18 4 24 15 20 8 -4 17 -2 20 3 4 6 0 10 -7 10 -10 0 -10 2 1 9 9 6 12 21 9 45 -3 26 0 35 8 32 8 -3 10 6 7 32 -4 32 -1 38 19 47 15 6 24 20 26 39 3 19 0 26 -8 21 -9 -6 -9 -2 -1 14 10 17 16 19 31 11 16 -9 19 -6 23 18 l4 27 2 -28 c1 -37 32 -33 42 5 6 22 4 25 -9 21 -10 -4 -8 1 6 15 32 32 28 42 -10 31 -18 -5 -34 -9 -34 -9 -1 0 3 11 9 25 13 27 30 35 21 10 -10 -24 22 -7 33 18 l10 22 13 -24 13 -24 12 29 c9 19 14 23 14 12 1 -25 21 -23 21 2 0 11 -4 20 -10 20 -5 0 -10 7 -10 15 0 20 -10 19 -26 -2 -7 -10 -13 -13 -14 -8 0 13 10 26 33 44 15 12 17 12 11 -4 -5 -13 -4 -16 4 -11 7 4 12 2 12 -6 0 -10 2 -10 9 0 4 8 11 13 15 13 19 -3 24 1 30 22 5 18 8 20 16 7 7 -11 10 -11 10 -2 0 7 -7 15 -15 18 -10 4 -12 11 -7 18 4 6 7 21 6 33 -1 23 31 40 40 19 2 -6 5 -6 5 -1 1 19 -16 36 -38 38 -21 1 -21 2 -5 14 10 7 21 13 26 13 4 0 8 7 8 15 0 40 84 82 116 58 5 -5 1 0 -9 9 -17 16 -17 19 -3 45 8 15 15 22 16 16 0 -7 6 -13 14 -13 8 0 17 -11 20 -25 4 -15 13 -25 24 -25 15 0 15 2 2 10 -8 5 -12 10 -8 10 4 0 3 12 -2 26 -6 15 -6 23 0 19 5 -3 14 4 20 15 8 16 8 20 -4 20 -8 0 -18 4 -21 10 -7 11 25 59 39 60 5 0 2 -8 -7 -18 -17 -18 -8 -50 11 -38 6 3 12 1 14 -6 3 -7 7 -5 11 6 4 9 3 15 -2 12 -5 -3 -8 8 -7 25 1 22 7 31 24 36 12 3 27 14 33 26 8 14 13 16 19 7 12 -19 43 -7 51 20 4 16 7 19 8 8 1 -10 5 -18 10 -18 17 0 22 19 10 41 -7 15 -8 24 -1 28 6 4 11 26 10 50 0 28 -3 39 -9 30 -6 -10 -9 -11 -9 -1 0 14 -49 16 -117 3 -26 -5 -79 -14 -118 -21 -183 -32 -495 -155 -635 -250 -64 -44 -154 -134 -239 -241 -63 -79 -70 -94 -48 -102 7 -2 0 -10 -16 -17 -25 -12 -30 -11 -55 12 -53 49 -106 78 -143 78 -42 0 -108 26 -189 74 -30 19 -80 41 -110 51 -30 10 -64 24 -75 32 -11 7 -38 18 -60 24 -22 6 -53 23 -70 38 -73 64 -296 156 -550 226 -75 21 -97 33 -198 104 -72 51 -174 112 -369 219 -32 18 -60 32 -63 32 -3 0 -5 -1696 -5 -3770z m3604 3454 c3 -8 2 -12 -4 -9 -6 3 -10 10 -10 16 0 14 7 11 14 -7z m-94 -43 c-1 -13 -3 -13 -15 3 -19 26 -19 42 0 26 8 -7 15 -20 15 -29z m-492 -27 c0 -18 -3 -22 -9 -13 -11 18 -11 52 0 45 5 -3 9 -17 9 -32z m-378 -479 c0 -2 -6 -5 -13 -8 -10 -4 -14 5 -15 31 l-2 37 15 -29 c8 -15 15 -30 15 -31z m-134 -87 c-9 -5 -24 -7 -34 -5 -12 3 -11 5 6 6 12 0 22 6 22 12 0 5 5 7 11 3 8 -5 6 -10 -5 -16z m-83 -113 c4 -8 2 -17 -3 -20 -6 -4 -10 3 -10 14 0 25 6 27 13 6z m-46 -51 c-3 -3 -12 -4 -19 -1 -8 3 -5 6 6 6 11 1 17 -2 13 -5z m3 -56 c0 -16 -3 -19 -11 -11 -6 6 -8 16 -5 22 11 17 16 13 16 -11z m-110 -243 c0 -9 -6 -12 -15 -9 -8 4 -12 10 -9 15 8 14 24 10 24 -6z m-39 -126 c-5 -13 -10 -19 -10 -12 -1 15 10 45 15 40 3 -2 0 -15 -5 -28z m2294 -279 c-3 -5 -12 -7 -20 -3 -21 7 -19 13 6 13 11 0 18 -4 14 -10z m45 -70 c0 -33 -3 -38 -17 -33 -19 7 -33 22 -33 37 0 6 7 1 15 -10 8 -10 15 -16 16 -11 1 4 3 12 4 17 1 6 3 17 4 25 2 32 11 13 11 -25z m-7 -90 c-3 -12 -8 -19 -11 -16 -5 6 5 36 12 36 2 0 2 -9 -1 -20z m-2442 -93 c-10 -9 -11 -8 -5 6 3 10 9 15 12 12 3 -3 0 -11 -7 -18z m-41 -154 c0 -12 -2 -12 -15 1 -8 8 -15 17 -15 20 0 3 7 3 15 0 8 -4 15 -13 15 -21z m-46 -332 c3 -5 -1 -11 -9 -14 -9 -4 -12 -1 -8 9 6 16 10 17 17 5z m-187 -808 c9 -58 8 -64 -12 -83 -12 -11 -26 -20 -31 -20 -14 0 -7 126 8 163 14 37 23 22 35 -60z m2951 4 c6 -18 14 -55 18 -84 6 -45 4 -52 -15 -62 -16 -9 -26 -8 -45 4 -14 9 -23 22 -21 28 2 7 9 44 15 84 13 78 27 87 48 30z"/>
 <path d="M3190 7295 c0 -8 5 -15 10 -15 6 0 10 7 10 15 0 8 -4 15 -10 15 -5 0 -10 -7 -10 -15z"/>
 <path d="M3230 7301 c0 -11 59 -36 66 -28 3 3 -4 8 -15 12 -12 3 -19 11 -16 16 4 5 -3 9 -14 9 -12 0 -21 -4 -21 -9z"/>
 <path d="M3300 7290 c8 -5 22 -9 30 -9 10 0 8 3 -5 9 -27 12 -43 12 -25 0z"/>
 <path d="M3090 7261 c0 -9 30 -24 36 -18 2 1 -6 8 -16 15 -11 7 -20 8 -20 3z"/>
 <path d="M3240 7260 c0 -5 5 -10 10 -10 6 0 10 5 10 10 0 6 -4 10 -10 10 -5 0 -10 -4 -10 -10z"/>
 <path d="M3095 7210 c-3 -5 -1 -10 4 -10 6 0 11 5 11 10 0 6 -2 10 -4 10 -3 0 -8 -4 -11 -10z"/>
 <path d="M3500 7131 c0 -5 5 -13 10 -16 6 -3 10 -2 10 4 0 5 -4 13 -10 16 -5 3 -10 2 -10 -4z"/>
 <path d="M2941 7034 c0 -11 3 -14 6 -6 3 7 2 16 -1 19 -3 4 -6 -2 -5 -13z"/>
 <path d="M3820 7000 c-9 -6 -11 -10 -3 -10 8 0 10 -7 6 -17 -6 -16 -5 -16 10 -4 14 11 17 11 17 0 0 -10 3 -10 11 -2 9 9 8 16 -4 27 -18 19 -18 19 -37 6z"/>
 <path d="M3937 6893 c-10 -9 -9 -33 1 -33 4 0 8 9 9 20 2 21 0 24 -10 13z"/>
 <path d="M2742 6875 c-30 -16 -38 -25 -21 -25 15 1 55 28 48 33 -2 2 -14 -2 -27 -8z"/>
 <path d="M2840 6864 c0 -8 5 -12 10 -9 6 4 8 11 5 16 -9 14 -15 11 -15 -7z"/>
 <path d="M3895 6870 c-3 -6 1 -7 9 -4 18 7 21 14 7 14 -6 0 -13 -4 -16 -10z"/>
 <path d="M3950 6830 c0 -11 -5 -20 -12 -20 -6 0 -9 -2 -6 -5 3 -3 13 -3 22 1 17 7 23 44 6 44 -5 0 -10 -9 -10 -20z"/>
 <path d="M2740 6832 c0 -4 10 -9 22 -9 18 -2 20 0 8 7 -18 12 -30 13 -30 2z"/>
 <path d="M2710 6820 c-8 -5 -12 -11 -9 -14 2 -3 11 -1 19 4 8 5 12 11 9 14 -2 3 -11 1 -19 -4z"/>
 <path d="M2725 6780 c-3 -5 -1 -10 4 -10 6 0 11 5 11 10 0 6 -2 10 -4 10 -3 0 -8 -4 -11 -10z"/>
 <path d="M3990 6699 c0 -5 5 -7 10 -4 6 3 10 8 10 11 0 2 -4 4 -10 4 -5 0 -10 -5 -10 -11z"/>
 <path d="M2685 6690 c-3 -5 -1 -10 4 -10 6 0 11 5 11 10 0 6 -2 10 -4 10 -3 0 -8 -4 -11 -10z"/>
 <path d="M4017 6683 c-4 -3 -7 -11 -7 -17 0 -6 5 -5 12 2 6 6 9 14 7 17 -3 3 -9 2 -12 -2z"/>
 <path d="M4170 6515 c0 -18 19 -40 26 -32 4 4 0 15 -9 24 -9 10 -17 13 -17 8z"/>
 <path d="M2562 6494 c-7 -8 -8 -14 -3 -14 10 0 25 19 20 25 -2 1 -10 -3 -17 -11z"/>
 <path d="M2410 6384 c0 -8 5 -12 10 -9 6 3 10 10 10 16 0 5 -4 9 -10 9 -5 0 -10 -7 -10 -16z"/>
 <path d="M2375 6320 c-3 -5 -1 -10 4 -10 6 0 11 5 11 10 0 6 -2 10 -4 10 -3 0 -8 -4 -11 -10z"/>
 <path d="M2310 6110 c0 -5 5 -10 10 -10 6 0 10 5 10 10 0 6 -4 10 -10 10 -5 0 -10 -4 -10 -10z"/>
 <path d="M4310 6109 c-13 -9 -13 -10 2 -6 18 6 33 -19 18 -28 -6 -4 -10 -16 -10 -28 1 -22 1 -22 15 -3 18 24 19 37 3 59 -10 13 -17 14 -28 6z"/>
 <path d="M2285 6089 c-10 -15 3 -25 16 -12 7 7 7 13 1 17 -6 3 -14 1 -17 -5z"/>
 <path d="M2300 5959 c0 -5 5 -7 10 -4 6 3 10 8 10 11 0 2 -4 4 -10 4 -5 0 -10 -5 -10 -11z"/>
 <path d="M2237 5945 c-4 -8 -2 -17 3 -20 6 -4 10 3 10 14 0 25 -6 27 -13 6z"/>
 <path d="M2317 5934 c-4 -4 -7 -14 -7 -23 0 -11 3 -12 11 -4 6 6 10 16 7 23 -2 6 -7 8 -11 4z"/>
 <path d="M2275 5920 c3 -5 8 -10 11 -10 2 0 4 5 4 10 0 6 -5 10 -11 10 -5 0 -7 -4 -4 -10z"/>
 <path d="M4390 5906 c0 -9 5 -16 10 -16 6 0 10 4 10 9 0 6 -4 13 -10 16 -5 3 -10 -1 -10 -9z"/>
 <path d="M2253 5903 c-15 -5 -17 -23 -4 -23 5 0 11 7 15 15 3 8 4 15 3 14 -1 0 -8 -3 -14 -6z"/>
 <path d="M2230 5846 c0 -2 9 -6 20 -9 11 -3 18 -1 14 4 -5 9 -34 13 -34 5z"/>
 <path d="M4427 5704 c-4 -4 -7 -14 -7 -23 0 -11 3 -12 11 -4 6 6 10 16 7 23 -2 6 -7 8 -11 4z"/>
 <path d="M3040 5661 c0 -5 7 -11 14 -14 10 -4 13 -1 9 9 -6 15 -23 19 -23 5z"/>
 <path d="M2906 5630 c21 -24 21 -26 4 -53 -13 -21 -19 -24 -23 -14 -3 8 -1 19 5 25 7 7 7 16 -1 29 -9 15 -10 16 -11 2 0 -20 -27 -32 -36 -17 -5 7 -2 8 6 3 9 -5 11 -4 6 3 -16 27 -28 11 -23 -29 5 -35 2 -44 -20 -62 -14 -12 -32 -28 -39 -35 -8 -7 -19 -10 -25 -6 -9 5 -10 0 -7 -14 4 -12 2 -20 -3 -16 -5 3 -9 1 -9 -5 0 -5 5 -11 11 -13 7 -2 7 -12 0 -31 -16 -40 -13 -83 5 -101 8 -9 12 -21 8 -27 -4 -7 -13 2 -22 21 -15 32 -16 32 -25 11 -6 -11 -14 -21 -19 -21 -5 0 -6 4 -3 10 3 6 -1 7 -10 4 -19 -8 -40 -44 -25 -44 5 0 10 -6 10 -14 0 -8 6 -17 13 -20 8 -3 6 -9 -8 -21 -12 -9 -21 -12 -23 -5 -2 5 -8 8 -13 4 -5 -3 -9 0 -9 5 0 6 7 11 15 11 15 0 20 12 9 23 -7 7 -37 -28 -47 -55 -3 -10 -2 -18 4 -18 6 0 7 -4 4 -10 -4 -6 -11 -5 -19 3 -10 9 -11 14 -2 19 8 5 5 13 -8 25 -10 10 -16 12 -12 6 4 -7 3 -13 -3 -13 -12 0 -10 -43 2 -51 6 -4 5 -14 -2 -25 -9 -16 -10 -16 -11 -3 0 21 -30 34 -30 15 0 -8 6 -17 13 -20 6 -3 3 -4 -8 -3 -14 1 -19 -3 -17 -14 1 -9 -5 -22 -13 -29 -12 -10 -15 -10 -15 3 0 14 -28 32 -36 24 -2 -2 -5 -16 -6 -31 -1 -15 -8 -32 -16 -38 -11 -9 -12 -7 -7 14 6 23 3 26 -20 26 -15 0 -22 -4 -16 -8 8 -5 7 -15 -4 -36 -19 -36 -19 -52 -1 -56 12 -3 12 -8 1 -33 l-13 -30 -1 28 c-1 17 -6 27 -16 27 -8 0 -15 5 -15 10 0 6 4 10 10 10 5 0 7 7 3 15 -4 13 -8 11 -18 -9 -8 -14 -15 -33 -18 -43 -3 -10 -5 -4 -6 13 -1 19 -7 34 -17 38 -23 9 -31 7 -15 -3 8 -5 15 -21 15 -34 1 -14 -2 -23 -7 -20 -5 3 -6 15 -3 27 5 19 3 19 -16 -4 -13 -16 -19 -19 -15 -7 4 9 3 17 -1 17 -4 0 -20 -28 -35 -62 -16 -35 -33 -71 -38 -80 -5 -10 -9 -28 -9 -40 0 -30 -33 -168 -40 -168 -3 0 -5 -17 -4 -37 1 -39 -17 -78 -31 -65 -4 4 -4 -9 0 -28 7 -33 6 -34 -9 -15 -15 19 -15 19 -12 -12 2 -18 -1 -33 -6 -33 -5 0 -6 -10 -2 -22 11 -31 12 -169 2 -190 -5 -10 -4 -19 2 -23 5 -3 10 -1 10 6 0 7 2 10 4 8 3 -3 1 -21 -3 -40 -5 -20 -4 -62 1 -95 19 -135 18 -215 -8 -324 -13 -58 -29 -124 -34 -148 -15 -65 -13 -235 3 -226 10 6 10 4 0 -7 -18 -18 -16 -48 2 -55 11 -5 12 -11 4 -26 -7 -13 -7 -23 0 -32 5 -6 10 -21 10 -31 0 -43 10 -125 16 -135 3 -5 -2 -10 -11 -10 -15 0 -15 -3 4 -23 12 -13 22 -30 22 -38 0 -12 -2 -12 -11 1 -23 33 4 -56 29 -99 15 -24 47 -80 72 -126 25 -45 55 -94 68 -110 12 -15 22 -31 22 -35 0 -5 14 -13 31 -19 29 -10 31 -9 44 22 14 31 14 31 15 6 0 -14 10 -34 21 -45 l21 -19 -6 35 -7 35 16 -28 c20 -35 29 -30 15 7 -5 15 -10 42 -9 59 1 29 2 28 10 -11 11 -57 52 -97 102 -100 31 -2 37 1 37 17 0 32 15 32 56 1 21 -16 49 -30 61 -30 23 0 56 26 49 39 -3 4 11 5 29 3 22 -3 40 -13 50 -28 16 -25 57 -32 84 -15 19 12 -24 41 -64 42 -17 1 -22 3 -12 6 9 2 17 8 17 13 0 4 9 6 20 3 11 -3 20 -9 20 -14 0 -5 5 -9 11 -9 5 0 7 4 4 10 -8 12 45 10 62 -3 8 -6 18 -3 28 7 9 9 23 16 30 16 8 0 19 10 26 21 8 15 13 18 19 10 7 -13 64 -45 57 -33 -3 4 6 17 19 30 21 20 24 21 24 5 0 -14 2 -15 9 -4 6 9 11 10 15 2 4 -6 4 -16 0 -23 -4 -7 -3 -8 4 -4 7 4 12 2 12 -4 0 -6 5 -8 10 -5 6 3 10 1 10 -4 0 -6 7 -11 16 -11 11 0 15 6 11 20 -6 22 8 37 18 20 11 -18 24 -11 31 15 9 36 36 13 28 -24 -4 -18 -3 -22 4 -12 5 7 14 11 20 7 5 -3 13 6 16 21 5 19 10 23 18 15 13 -13 68 11 68 31 0 9 2 9 8 0 12 -19 46 -5 60 25 6 15 23 41 36 57 22 26 24 27 19 8 -3 -13 -9 -23 -14 -23 -5 0 -15 -13 -24 -30 -9 -16 -11 -30 -6 -30 6 0 7 -7 4 -17 -5 -12 -3 -14 7 -8 9 6 11 4 6 -4 -5 -7 -15 -10 -23 -7 -11 5 -13 1 -7 -17 8 -28 7 -27 36 -32 23 -4 25 -2 21 23 -4 25 -3 25 10 10 8 -10 19 -18 26 -18 6 0 11 -5 11 -11 0 -5 5 -7 11 -3 6 3 15 1 19 -6 6 -10 15 -6 34 14 28 27 58 38 37 12 -8 -10 -9 -16 -1 -21 6 -3 8 -11 5 -16 -4 -5 1 -9 9 -9 9 0 16 5 16 10 0 6 5 10 10 10 6 0 9 -6 8 -12 -2 -8 6 -12 20 -10 15 2 22 -2 22 -12 0 -20 24 -21 40 -1 16 19 31 19 24 0 -5 -13 -2 -14 22 -5 37 14 73 58 74 90 0 20 2 22 10 10 5 -8 10 -27 10 -42 0 -24 3 -26 31 -23 17 3 37 9 43 14 8 7 24 7 42 2 38 -11 78 9 125 64 34 38 86 119 101 158 5 11 13 15 19 11 8 -5 9 -3 4 6 -4 7 -4 15 1 19 18 13 44 70 44 98 0 20 3 24 9 14 7 -11 12 -4 20 25 6 21 11 49 11 61 0 12 5 25 11 28 6 4 8 13 5 21 -3 7 -1 26 4 41 5 15 11 53 14 83 6 87 18 160 25 160 4 0 6 24 5 53 -5 114 -4 358 1 367 8 12 35 194 35 232 0 15 6 37 13 48 8 15 9 23 1 28 -16 10 -27 62 -13 62 8 0 8 4 -1 15 -9 10 -9 15 -1 15 6 0 11 7 11 16 0 10 -6 14 -15 10 -11 -4 -15 1 -14 17 0 12 3 16 6 10 8 -22 21 -14 20 13 0 18 -2 22 -8 13 -13 -22 -19 -7 -30 82 -11 89 -27 158 -41 174 -4 5 -8 26 -8 46 0 21 -4 40 -10 44 -5 3 -6 13 -3 22 4 10 2 14 -5 9 -14 -9 -27 13 -24 44 1 14 -1 19 -4 13 -8 -19 -26 -16 -23 5 3 33 -2 37 -17 12 l-15 -25 4 33 c5 44 -15 36 -40 -16 0 -2 -11 3 -22 10 -18 11 -23 11 -31 -2 -8 -12 -11 -11 -16 8 -9 32 -24 27 -24 -8 0 -16 -4 -30 -10 -30 -13 0 -13 12 0 44 8 21 6 29 -12 46 -27 25 -35 25 -41 3 -3 -10 -5 -2 -6 17 -1 26 -4 31 -11 20 -5 -8 -7 -24 -4 -35 8 -27 -9 -8 -24 28 -7 16 -8 27 -2 27 6 0 10 5 10 10 0 6 -8 10 -18 10 -29 0 -52 36 -47 72 4 31 4 30 -6 -4 -13 -45 -29 -50 -29 -9 0 17 -4 33 -10 36 -12 7 -12 -8 -1 -57 6 -26 5 -45 -5 -64 -8 -14 -14 -31 -14 -36 0 -5 -6 -16 -12 -23 -7 -7 -24 -32 -38 -54 -13 -23 -30 -41 -37 -41 -7 0 -13 -6 -14 -12 0 -7 -4 -4 -9 7 -7 18 -10 16 -24 -16 -15 -35 -52 -66 -39 -33 4 11 -5 8 -33 -8 -21 -12 -43 -23 -49 -23 -57 -4 -145 -61 -145 -95 0 -5 -11 -10 -25 -10 -14 0 -25 -5 -25 -11 0 -16 -31 -38 -52 -39 -22 0 -23 -16 -2 -24 24 -9 74 -7 74 3 0 18 35 16 58 -3 42 -37 16 -76 -52 -76 -47 0 -91 27 -106 64 -8 19 -9 19 -9 2 -1 -16 -7 -18 -47 -13 -25 2 -53 12 -62 20 -14 14 -13 18 1 41 20 30 24 67 5 48 -7 -7 -17 -8 -29 -1 -15 8 -18 6 -13 -8 4 -13 0 -11 -14 6 -10 13 -24 21 -31 17 -6 -4 -9 -2 -6 7 3 7 -3 22 -15 32 -11 10 -20 14 -20 10 0 -4 -9 0 -19 9 -11 10 -24 15 -29 12 -6 -3 -22 8 -36 25 -17 20 -26 25 -26 15 0 -14 -3 -14 -20 -4 -11 7 -19 17 -19 23 3 24 -2 36 -11 30 -6 -4 -8 -11 -5 -16 4 -5 2 -9 -4 -9 -5 0 -13 5 -16 10 -4 6 -11 8 -16 5 -5 -4 -9 -1 -9 4 0 6 -7 11 -15 11 -8 0 -24 9 -35 20 -18 18 -20 18 -20 3 -1 -16 -2 -16 -13 -2 -7 9 -18 14 -25 12 -6 -3 -16 6 -21 19 -6 12 -10 19 -11 13 -1 -24 -20 23 -21 55 l-1 35 -7 -30 -7 -30 -8 39 c-5 26 -10 35 -16 27 -4 -7 -6 -23 -3 -35 4 -19 3 -19 -7 -3 -6 9 -8 26 -5 37 4 11 2 20 -4 20 -6 0 -11 -7 -11 -16 0 -8 -5 -12 -11 -8 -6 3 -8 15 -6 26 4 15 2 19 -12 15 -14 -3 -18 2 -18 24 0 16 4 29 9 29 5 0 6 5 3 10 -3 6 -3 15 1 22 8 12 16 53 15 73 -3 63 -8 87 -19 94 -9 6 -8 12 8 26 11 10 20 27 20 37 0 11 5 18 13 15 6 -2 12 -12 12 -22 0 -10 6 -20 13 -23 6 -2 12 -10 12 -18 0 -8 10 -14 24 -14 27 0 43 -16 49 -50 8 -41 26 -80 37 -80 5 0 10 -5 10 -11 0 -8 -5 -8 -15 1 -12 10 -15 10 -15 -4 0 -9 6 -16 14 -16 7 0 21 -10 30 -22 9 -13 14 -17 11 -10 -7 14 11 17 20 2 3 -5 20 -10 36 -10 19 0 38 -9 53 -24 12 -14 36 -28 52 -32 41 -9 257 -23 391 -25 114 -2 143 6 143 37 0 11 13 13 54 9 49 -4 54 -2 64 21 9 19 17 23 36 18 20 -5 27 0 40 24 9 17 21 32 28 35 13 5 11 6 -45 49 -17 13 -17 15 9 43 l27 30 -6 -33 c-8 -39 10 -44 19 -5 5 19 1 39 -15 67 -16 30 -18 41 -9 47 8 5 12 27 10 58 -1 28 2 51 7 51 15 0 27 45 20 75 l-7 30 -1 -32 c0 -17 -6 -35 -13 -39 -7 -5 -9 -2 -5 8 3 9 1 20 -5 26 -7 7 -6 16 1 30 20 37 11 48 -14 17 -21 -27 -24 -28 -26 -10 -2 32 2 49 14 57 9 6 9 8 1 8 -7 0 -19 -11 -28 -25 -14 -22 -45 -38 -32 -17 2 4 0 14 -5 22 -7 13 -10 13 -18 1 -11 -17 -23 1 -15 22 3 8 1 18 -5 21 -6 4 -15 -11 -21 -34 -12 -46 -29 -54 -22 -11 3 19 -1 30 -12 34 -21 8 -35 -20 -30 -59 2 -21 -3 -37 -15 -48 -15 -13 -18 -14 -18 -1 0 8 4 12 9 9 4 -3 8 2 8 11 0 12 -5 15 -16 11 -13 -5 -15 -1 -12 18 3 15 1 24 -6 23 -5 -1 -11 3 -11 8 -4 27 -19 46 -33 40 -8 -3 -21 0 -28 6 -11 9 -14 6 -14 -18 0 -16 5 -34 12 -41 9 -9 9 -12 0 -12 -7 0 -15 7 -19 16 -5 13 -7 13 -14 2 -6 -9 -12 -4 -20 20 -14 40 -41 57 -68 42 -11 -5 -21 -15 -24 -22 -2 -7 -7 4 -11 25 -7 38 -26 42 -26 5 0 -14 -5 -18 -15 -14 -11 4 -15 -2 -14 -22 0 -15 3 -21 6 -14 5 13 23 7 23 -8 0 -5 -11 -7 -24 -4 -19 3 -24 0 -22 -13 2 -10 1 -12 -1 -5 -3 6 -8 12 -13 12 -4 0 -10 9 -13 21 -3 12 -10 18 -16 14 -6 -3 -11 1 -11 9 0 8 5 18 10 21 6 3 10 11 10 17 0 17 -40 -23 -41 -41 0 -11 -2 -12 -6 -3 -4 10 -8 10 -19 1 -11 -9 -14 -8 -14 7 -1 18 -1 18 -14 1 -13 -16 -14 -16 -20 5 -4 17 -8 20 -15 10 -4 -8 -12 -12 -17 -11 -18 7 -43 33 -38 41 3 4 3 8 -1 8 -3 0 -10 -10 -14 -22 -9 -23 -9 -23 -16 4 -7 28 -44 45 -57 25 -6 -9 -8 -8 -8 3 -1 9 -6 5 -15 -10 l-14 -25 -7 33 c-5 23 -10 30 -19 22 -8 -6 -16 -6 -26 3 -7 6 -4 1 7 -13z m177 -81 c4 -16 3 -18 -9 -8 -7 6 -11 15 -8 20 8 13 11 11 17 -12z m657 -63 c0 -2 -7 -9 -15 -16 -13 -11 -14 -10 -9 4 5 14 24 23 24 12z m70 -15 c0 -5 -7 -12 -16 -15 -14 -5 -15 -4 -4 9 14 17 20 19 20 6z m-973 -41 c3 -9 1 -11 -4 -5 -11 14 -33 17 -33 5 0 -5 -10 -10 -22 -10 -23 1 -23 1 -3 16 24 18 57 15 62 -6z m394 -62 c-3 -21 -6 -26 -9 -15 -3 17 3 47 11 47 2 0 1 -15 -2 -32z m274 -2 c-4 -20 -2 -36 4 -40 6 -4 11 0 11 8 0 19 16 21 24 4 3 -7 3 2 0 20 l-6 34 26 -23 c14 -12 26 -28 26 -34 0 -6 10 -11 22 -11 16 1 27 -9 40 -34 10 -21 17 -28 18 -17 0 9 4 17 9 17 5 0 7 9 4 20 -3 11 0 20 6 20 15 0 14 -63 -1 -79 -10 -11 -10 -14 0 -18 6 -3 12 -17 12 -31 0 -20 -3 -23 -9 -13 -8 13 -12 13 -27 0 -16 -12 -17 -12 -9 1 4 8 -4 4 -18 -9 -15 -13 -29 -32 -32 -43 -5 -15 -10 -16 -27 -7 -16 9 -23 8 -29 -2 -7 -12 -9 -12 -9 -1 0 8 -6 12 -12 9 -7 -2 -12 -10 -10 -16 1 -7 -8 -5 -23 5 -14 9 -32 13 -41 10 -13 -5 -16 -1 -12 23 2 17 1 28 -4 25 -4 -3 -8 -18 -8 -35 0 -31 -14 -39 -24 -13 -3 8 -10 13 -15 10 -5 -4 -12 7 -16 24 -4 17 -11 28 -16 24 -11 -7 0 -56 15 -66 6 -4 7 -8 2 -8 -6 0 -20 10 -33 22 -19 17 -23 19 -17 5 12 -31 -5 -18 -22 18 -20 42 -33 45 -27 8 l3 -28 -10 25 c-8 18 -13 21 -19 11 -6 -9 -11 -4 -19 18 -9 25 -8 31 4 31 7 0 14 -6 14 -12 0 -9 4 -8 10 2 13 21 12 30 -3 30 -9 0 -14 12 -15 30 -1 34 17 40 42 14 15 -14 16 -14 16 0 0 9 6 16 13 17 10 0 10 2 0 6 -7 2 -13 9 -13 15 0 6 7 7 15 4 8 -3 22 -9 30 -12 10 -4 15 0 15 10 0 9 4 16 10 16 5 0 6 -7 3 -17 -4 -11 -3 -14 5 -9 7 4 12 13 12 21 0 8 4 17 10 20 6 3 7 -1 4 -9 -8 -22 12 -20 26 2 10 15 11 15 6 0 -2 -9 2 -19 10 -22 8 -3 14 -1 14 5 0 6 5 7 10 4 6 -4 15 7 21 24 14 41 21 39 14 -3z m-653 -2 c-5 -8 -19 -21 -32 -27 -13 -7 -27 -23 -31 -37 -6 -23 -7 -23 -8 -3 -2 35 10 53 34 53 13 0 25 7 29 15 3 8 8 15 11 15 3 0 2 -7 -3 -16z m768 -8 c0 -3 -4 -8 -10 -11 -5 -3 -10 -1 -10 4 0 6 5 11 10 11 6 0 10 -2 10 -4z m-439 -50 c5 3 9 0 9 -6 0 -15 -23 -7 -26 8 -1 7 0 8 3 2 2 -5 9 -8 14 -4z m-21 -22 c0 -3 -7 -12 -15 -20 -16 -17 -18 -14 -9 10 6 15 24 23 24 10z m40 -25 c0 -6 -4 -7 -10 -4 -5 3 -10 11 -10 16 0 6 5 7 10 4 6 -3 10 -11 10 -16z m-500 -14 c0 -8 -4 -15 -10 -15 -5 0 -10 7 -10 15 0 8 5 15 10 15 6 0 10 -7 10 -15z m50 -5 c0 -5 -4 -10 -10 -10 -5 0 -10 5 -10 10 0 6 5 10 10 10 6 0 10 -4 10 -10z m475 -78 c4 -10 -6 -5 -24 12 -17 17 -31 31 -31 33 0 10 49 -31 55 -45z m620 19 c-3 -6 -11 -11 -17 -11 -6 0 -6 6 2 15 14 17 26 13 15 -4z m-1206 -38 c6 -20 8 -39 6 -42 -3 -2 -5 1 -5 8 0 7 -5 9 -11 5 -8 -5 -10 1 -7 20 3 14 1 26 -3 26 -5 0 -9 5 -9 10 0 25 20 6 29 -27z m101 -42 c0 -6 -7 -8 -15 -5 -8 4 -15 15 -15 26 0 17 2 18 15 4 8 -8 15 -19 15 -25z m-170 -15 c0 -3 -4 -8 -10 -11 -5 -3 -10 -1 -10 4 0 6 5 11 10 11 6 0 10 -2 10 -4z m-99 -87 c-6 -16 -10 -18 -10 -7 -1 22 12 55 16 42 2 -6 -1 -22 -6 -35z m-158 -109 c3 -11 1 -18 -4 -14 -5 3 -9 12 -9 20 0 20 7 17 13 -6z m2009 -152 c-7 -7 -12 -8 -12 -2 0 6 3 14 7 17 3 4 9 5 12 2 2 -3 -1 -11 -7 -17z m-1138 -253 c28 -21 92 -19 105 3 9 15 12 15 21 2 15 -23 8 -32 -43 -59 -40 -20 -54 -22 -89 -15 -43 9 -86 52 -74 73 10 16 57 13 80 -4z m-379 -659 c14 -9 29 -33 35 -56 13 -48 29 -50 71 -11 17 17 37 27 45 24 8 -3 14 1 14 10 0 10 7 13 24 10 13 -3 27 0 30 6 10 15 26 14 26 -3 0 -7 -20 -32 -45 -55 -52 -48 -56 -57 -15 -36 59 30 67 14 15 -28 -40 -32 -146 -53 -186 -38 -20 7 -17 9 22 16 44 8 44 8 14 16 -16 4 -70 12 -118 18 -99 12 -181 48 -237 106 l-33 35 39 -5 c21 -3 46 -13 54 -23 9 -10 28 -27 43 -36 26 -18 27 -18 36 7 5 13 22 34 38 47 32 25 86 23 128 -4z m-310 -67 c35 -36 42 -48 25 -39 -29 14 -90 70 -90 82 0 18 18 6 65 -43z m1196 22 c-10 -20 -4 -40 22 -68 24 -27 52 -31 43 -7 -7 18 16 78 34 89 7 5 39 10 72 13 52 3 60 1 78 -20 11 -12 19 -29 20 -37 0 -9 6 -11 18 -6 9 4 26 8 37 10 11 1 24 3 29 4 5 0 1 10 -9 21 -18 20 -17 20 16 21 19 1 55 3 82 4 51 3 58 -3 27 -23 -11 -7 -20 -18 -20 -25 0 -8 3 -9 8 -1 10 15 40 25 47 15 5 -9 -32 -63 -47 -69 -5 -2 -6 -7 -3 -11 7 -12 -124 -69 -175 -75 l-45 -6 52 19 c79 27 153 84 153 115 0 12 -20 5 -47 -18 -62 -52 -234 -82 -345 -61 -23 4 -38 3 -38 -2 0 -15 49 -34 102 -40 59 -7 70 -18 21 -21 -40 -3 -83 -21 -50 -22 9 0 17 -7 17 -15 0 -10 16 -16 50 -21 28 -4 50 -9 50 -13 0 -5 202 -8 253 -3 9 1 17 10 17 20 0 25 98 58 107 37 6 -18 -27 -86 -47 -96 -74 -34 -108 -51 -127 -65 -20 -15 -21 -14 -19 9 3 23 1 24 -27 16 -17 -5 -33 -7 -35 -4 -3 2 -14 -1 -26 -7 -11 -7 -29 -11 -39 -9 -10 1 -25 -3 -33 -9 -8 -7 -14 -9 -14 -4 0 5 -17 9 -37 10 -66 1 -116 11 -170 33 -29 11 -53 18 -53 15 0 -4 -6 -2 -12 3 -7 6 -28 10 -46 10 -25 0 -40 8 -62 34 -32 37 -40 89 -15 89 8 0 15 5 15 10 0 6 -6 10 -12 10 -10 0 -10 2 0 8 9 6 11 21 6 51 -7 47 6 65 39 55 18 -6 24 11 7 21 -5 3 -10 12 -10 20 0 10 16 15 58 17 77 4 94 0 83 -21z m-1313 -173 c6 -6 27 -11 47 -10 23 1 38 -4 41 -13 3 -7 12 -11 20 -8 8 3 22 -1 32 -9 21 -19 108 -48 116 -40 8 8 25 11 111 22 39 5 99 16 135 25 98 24 190 16 190 -16 0 -6 -13 -16 -30 -22 -16 -6 -30 -17 -30 -23 0 -17 -47 -28 -112 -25 -32 1 -58 -3 -58 -8 0 -16 -38 -23 -60 -11 -16 8 -30 8 -58 -1 -20 -7 -43 -12 -51 -10 -7 1 -10 -2 -6 -8 3 -6 0 -12 -7 -12 -7 -1 -24 -3 -38 -5 -38 -4 -90 24 -104 57 -9 22 -15 26 -24 17 -9 -9 -9 -4 -2 23 6 18 10 35 10 36 0 1 -7 0 -15 -3 -8 -4 -23 -3 -32 1 -10 4 -30 9 -46 10 -28 3 -57 21 -57 36 0 13 14 11 28 -3z m1512 2 c0 -5 -2 -10 -4 -10 -3 0 -8 5 -11 10 -3 6 -1 10 4 10 6 0 11 -4 11 -10z m57 -196 c-3 -3 -12 -4 -19 -1 -8 3 -5 6 6 6 11 1 17 -2 13 -5z m-733 -729 c3 3 2 0 -3 -6 -10 -12 -31 -4 -31 13 0 7 4 7 13 -1 8 -6 17 -9 21 -6z m583 -31 c-3 -3 -12 -4 -19 -1 -8 3 -5 6 6 6 11 1 17 -2 13 -5z m-1307 -50 c0 -8 -4 -12 -10 -9 -5 3 -10 10 -10 16 0 5 5 9 10 9 6 0 10 -7 10 -16z"/>
 <path d="M3391 5304 c0 -11 3 -14 6 -6 3 7 2 16 -1 19 -3 4 -6 -2 -5 -13z"/>
 <path d="M3328 5275 c-3 -14 -1 -25 3 -25 5 0 9 11 9 25 0 14 -2 25 -4 25 -2 0 -6 -11 -8 -25z"/>
 <path d="M3519 5240 c-8 -27 -12 -47 -8 -44 10 6 31 72 27 83 -2 5 -10 -12 -19 -39z"/>
 <path d="M3496 5164 c-4 -9 -4 -19 -1 -22 2 -3 7 3 11 12 4 9 4 19 1 22 -2 3 -7 -3 -11 -12z"/>
 <path d="M3575 5160 c-3 -5 -1 -10 4 -10 6 0 11 5 11 10 0 6 -2 10 -4 10 -3 0 -8 -4 -11 -10z"/>
 <path d="M2780 3808 c0 -18 18 -34 28 -24 3 4 -2 14 -11 23 -16 16 -17 16 -17 1z"/>
 <path d="M2680 3729 c0 -5 5 -7 10 -4 6 3 10 8 10 11 0 2 -4 4 -10 4 -5 0 -10 -5 -10 -11z"/>
 <path d="M2770 3730 c0 -5 5 -10 10 -10 6 0 10 5 10 10 0 6 -4 10 -10 10 -5 0 -10 -4 -10 -10z"/>
 <path d="M3605 3780 c-3 -5 1 -10 10 -10 9 0 13 5 10 10 -3 6 -8 10 -10 10 -2 0 -7 -4 -10 -10z"/>
 <path d="M3650 3775 c0 -9 5 -15 11 -13 6 2 11 8 11 13 0 5 -5 11 -11 13 -6 2 -11 -4 -11 -13z"/>
 <path d="M3786 3764 c-5 -14 -4 -15 9 -4 17 14 19 20 6 20 -5 0 -12 -7 -15 -16z"/>
 <path d="M3787 3711 c-17 -6 -17 -8 -3 -20 13 -11 17 -11 22 3 8 21 4 25 -19 17z"/>
 <path d="M2524 3505 c3 -21 26 -44 26 -26 0 7 8 3 19 -10 16 -21 22 -22 45 -11 14 6 26 16 26 22 0 6 -4 8 -10 5 -5 -3 -10 -2 -10 3 0 11 -31 23 -72 28 -19 3 -26 -1 -24 -11z"/>
 <path d="M3555 5580 c3 -5 11 -10 16 -10 6 0 7 5 4 10 -3 6 -11 10 -16 10 -6 0 -7 -4 -4 -10z"/>
 <path d="M2712 5544 c-12 -8 -20 -20 -16 -25 7 -12 21 -3 34 22 13 23 11 23 -18 3z"/>
 <path d="M2777 5533 c-10 -12 -23 -22 -29 -20 -6 1 -13 -4 -15 -10 -7 -20 22 -15 42 7 10 11 24 20 32 20 7 0 13 6 13 13 0 21 -24 16 -43 -10z"/>
 <path d="M4487 5513 c-4 -3 -7 -11 -7 -17 0 -6 5 -5 12 2 6 6 9 14 7 17 -3 3 -9 2 -12 -2z"/>
 <path d="M2695 5470 c-9 -10 -15 -26 -12 -35 4 -8 2 -15 -4 -15 -6 0 -7 -5 -4 -10 4 -6 12 -4 22 5 8 9 13 19 10 22 -4 3 -2 14 4 25 15 27 6 32 -16 8z"/>
 <path d="M2145 5410 c3 -5 8 -10 11 -10 2 0 4 5 4 10 0 6 -5 10 -11 10 -5 0 -7 -4 -4 -10z"/>
 <path d="M2715 5400 c-3 -5 -1 -10 4 -10 6 0 11 5 11 10 0 6 -2 10 -4 10 -3 0 -8 -4 -11 -10z"/>
 <path d="M2660 5354 c-13 -32 -13 -51 -1 -38 10 11 24 64 16 64 -3 0 -10 -12 -15 -26z"/>
 <path d="M3890 5359 c0 -5 5 -7 10 -4 6 3 10 8 10 11 0 2 -4 4 -10 4 -5 0 -10 -5 -10 -11z"/>
 <path d="M2631 5324 c0 -11 3 -14 6 -6 3 7 2 16 -1 19 -3 4 -6 -2 -5 -13z"/>
 <path d="M2590 5270 c0 -5 4 -10 9 -10 6 0 13 5 16 10 3 6 -1 10 -9 10 -9 0 -16 -4 -16 -10z"/>
 <path d="M2790 5185 c7 -8 17 -15 22 -15 5 0 3 7 -6 15 -8 8 -18 15 -22 15 -3 0 -1 -7 6 -15z"/>
 <path d="M2077 5178 c-2 -7 -1 -22 3 -33 6 -16 8 -13 7 13 0 35 -2 39 -10 20z"/>
 <path d="M4540 5179 c0 -5 5 -7 10 -4 6 3 10 8 10 11 0 2 -4 4 -10 4 -5 0 -10 -5 -10 -11z"/>
 <path d="M2476 5142 c-9 -11 -14 -26 -10 -36 7 -19 26 -22 23 -3 -1 6 1 20 6 30 11 26 1 30 -19 9z"/>
 <path d="M2810 5131 c0 -11 4 -22 9 -25 4 -3 6 6 3 19 -5 30 -12 33 -12 6z"/>
 <path d="M4555 5141 c-3 -5 -1 -12 5 -16 5 -3 10 1 10 9 0 18 -6 21 -15 7z"/>
 <path d="M2406 5125 c4 -8 11 -15 16 -15 6 0 5 6 -2 15 -7 8 -14 15 -16 15 -2 0 -1 -7 2 -15z"/>
 <path d="M2840 5133 c0 -7 5 -13 10 -13 6 0 10 -6 10 -14 0 -8 5 -18 10 -21 17 -10 11 11 -10 36 -10 13 -19 18 -20 12z"/>
 <path d="M2367 5099 c-4 -16 -3 -18 9 -8 7 6 11 15 8 20 -8 13 -11 11 -17 -12z"/>
 <path d="M4021 5063 c-1 -6 -4 -20 -7 -30 -5 -17 -5 -17 6 0 6 10 9 23 6 30 -3 9 -5 9 -5 0z"/>
 <path d="M2750 5050 c0 -5 5 -10 10 -10 6 0 10 5 10 10 0 6 -4 10 -10 10 -5 0 -10 -4 -10 -10z"/>
 <path d="M2347 5036 c-4 -10 -5 -21 -2 -24 9 -9 17 6 13 25 -3 17 -4 17 -11 -1z"/>
 <path d="M2255 5020 c-10 -11 -15 -20 -11 -20 11 0 39 30 34 36 -3 2 -13 -5 -23 -16z"/>
 <path d="M4537 4960 c3 -11 0 -20 -6 -20 -5 0 -8 -7 -5 -15 4 -8 10 -12 15 -9 5 3 7 10 4 15 -4 5 1 9 10 9 12 0 15 -6 10 -20 -4 -11 -2 -20 4 -20 18 0 12 46 -7 63 -24 22 -31 21 -25 -3z"/>
 <path d="M2920 4854 c0 -5 7 -19 15 -30 8 -10 15 -14 15 -8 0 5 -7 19 -15 30 -8 10 -15 14 -15 8z"/>
 <path d="M2880 4841 c0 -5 5 -13 10 -16 6 -3 10 -2 10 4 0 5 -4 13 -10 16 -5 3 -10 2 -10 -4z"/>
 <path d="M3320 4843 c0 -2 12 -15 28 -28 l27 -25 -23 -6 c-32 -9 -24 -38 11 -41 27 -2 27 0 22 35 -10 56 -11 59 -39 64 -14 3 -26 3 -26 1z"/>
 <path d="M2897 4799 c7 -7 15 -10 18 -7 3 3 -2 9 -12 12 -14 6 -15 5 -6 -5z"/>
 <path d="M2040 4690 c0 -5 5 -10 10 -10 6 0 10 5 10 10 0 6 -4 10 -10 10 -5 0 -10 -4 -10 -10z"/>
 <path d="M3190 4661 c0 -6 4 -13 10 -16 6 -3 7 1 4 9 -7 18 -14 21 -14 7z"/>
 <path d="M2000 4560 c0 -5 5 -10 10 -10 6 0 10 5 10 10 0 6 -4 10 -10 10 -5 0 -10 -4 -10 -10z"/>
 <path d="M2044 4555 c-11 -8 -14 -15 -6 -15 6 0 12 -12 12 -27 0 -36 9 -25 14 20 6 42 6 42 -20 22z"/>
 <path d="M4576 4444 c-4 -9 -4 -19 -1 -22 2 -3 7 3 11 12 4 9 4 19 1 22 -2 3 -7 -3 -11 -12z"/>
 <path d="M4540 4189 c0 -5 5 -7 10 -4 6 3 10 8 10 11 0 2 -4 4 -10 4 -5 0 -10 -5 -10 -11z"/>
 <path d="M4530 4108 c0 -9 5 -20 10 -23 13 -8 13 5 0 25 -8 13 -10 13 -10 -2z"/>
 <path d="M1884 3557 c1 -32 9 -63 16 -70 10 -10 12 -8 5 8 -4 11 -11 43 -16 70 l-8 50 3 -58z"/>
 <path d="M1991 3374 c0 -11 3 -14 6 -6 3 7 2 16 -1 19 -3 4 -6 -2 -5 -13z"/>
 <path d="M1940 3346 c0 -20 2 -36 4 -36 8 0 12 61 4 66 -4 3 -8 -11 -8 -30z"/>
 <path d="M4475 3360 c-3 -5 -1 -10 4 -10 6 0 11 5 11 10 0 6 -2 10 -4 10 -3 0 -8 -4 -11 -10z"/>
 <path d="M1912 3276 c1 -13 10 -29 20 -35 22 -14 22 -9 3 29 -19 36 -25 38 -23 6z"/>
 <path d="M3760 2579 c0 -5 5 -7 10 -4 6 3 10 8 10 11 0 2 -4 4 -10 4 -5 0 -10 -5 -10 -11z"/>
 <path d="M2737 2560 c6 -23 19 -26 26 -7 4 9 8 8 16 -3 8 -11 11 -11 11 -2 0 7 -12 17 -26 22 -33 13 -33 13 -27 -10z"/>
 <path d="M2655 2500 c-3 -5 -1 -10 4 -10 6 0 11 5 11 10 0 6 -2 10 -4 10 -3 0 -8 -4 -11 -10z"/>
 <path d="M2324 2265 c11 -8 25 -15 30 -15 6 0 2 7 -8 15 -11 8 -25 15 -30 15 -6 0 -2 -7 8 -15z"/>
 <path d="M3906 2215 c-9 -26 -7 -32 5 -12 6 10 9 21 6 23 -2 3 -7 -2 -11 -11z"/>
 </g>

</svg>