<!DOCTYPE svg PUBLIC "-//W3C//DTD SVG 20010904//EN" "http://www.w3.org/TR/2001/REC-SVG-20010904/DTD/svg10.dtd">
<svg version="1.0" xmlns="http://www.w3.org/2000/svg" width="210px" height="272px" viewBox="0 0 2100 2720" preserveAspectRatio="xMidYMid meet">
<g id="layer1" fill="#404040" stroke="none">
 <path d="M1 2238 c0 -397 3 -478 13 -455 12 27 14 28 30 12 13 -13 20 -15 29 -6 8 8 8 11 -1 11 -7 0 -12 5 -12 10 0 6 7 10 15 10 8 0 15 5 15 11 0 8 6 7 17 -2 15 -12 16 -12 10 3 -3 10 -2 20 3 23 9 6 277 -94 310 -115 8 -5 29 -17 45 -26 17 -9 58 -43 92 -75 36 -35 74 -62 91 -65 45 -9 71 -77 60 -159 -4 -33 -10 -83 -13 -112 -5 -45 -11 -54 -43 -77 -51 -35 -82 -93 -105 -196 -9 -40 10 -103 37 -125 25 -20 26 -26 26 -115 0 -52 -4 -122 -9 -155 -11 -80 0 -168 25 -202 11 -16 26 -43 32 -61 30 -86 126 -153 306 -213 64 -21 75 -22 180 -12 76 7 124 17 152 31 22 11 57 24 78 28 41 7 148 93 155 123 2 9 7 21 13 28 5 6 13 49 18 95 5 45 14 108 20 138 10 53 12 196 2 233 -4 17 -5 17 -17 0 -12 -16 -17 -17 -47 -4 -52 22 -122 26 -137 7 -23 -28 2 -43 73 -45 36 -1 67 3 70 8 8 12 37 8 37 -5 -1 -58 -33 -167 -48 -162 -4 1 -26 -14 -47 -34 -49 -45 -134 -76 -172 -63 -23 9 -28 16 -30 52 -1 23 -5 47 -9 53 -3 6 -3 10 2 9 19 -3 23 2 13 21 -9 17 -7 22 11 29 14 5 18 10 11 15 -6 4 -9 14 -6 24 5 14 3 14 -10 -2 -9 -11 -16 -16 -16 -11 0 5 -5 4 -12 -3 -9 -9 -16 -8 -30 5 -21 19 -24 49 -4 56 7 3 17 18 20 33 4 15 13 33 20 38 8 6 24 45 38 86 19 61 23 84 16 125 -4 28 -5 63 -2 79 4 18 1 31 -6 36 -16 10 -2 33 16 26 8 -3 33 7 56 22 24 15 52 32 63 38 16 10 19 20 17 58 -2 25 1 53 6 62 8 14 10 14 25 -1 10 -9 17 -29 17 -43 0 -24 43 -102 56 -102 3 0 3 4 0 9 -4 5 -13 46 -21 90 -28 145 -61 228 -109 277 -26 25 -116 79 -116 69 0 -4 -6 -3 -12 2 -11 9 -32 16 -83 29 -5 1 -23 5 -39 8 -16 3 -30 6 -31 8 -2 2 -6 33 -10 69 -7 65 -7 66 18 73 64 16 213 -100 239 -187 10 -32 13 -36 19 -21 13 32 9 137 -6 178 -10 29 -11 43 -2 57 9 14 6 38 -12 108 -20 78 -22 97 -12 135 15 59 13 67 -5 34 -19 -35 -25 -35 -70 4 l-37 33 8 -60 c4 -33 11 -68 17 -78 5 -10 7 -25 4 -32 -6 -16 29 -92 56 -122 11 -12 18 -27 16 -34 -4 -11 -54 52 -114 145 -22 34 -24 40 -10 48 19 11 12 31 -31 84 -69 86 -92 173 -100 394 -6 157 -8 168 -16 110 -4 -36 -18 -123 -30 -195 -11 -71 -22 -152 -23 -178 -1 -26 -4 -51 -8 -54 -3 -4 -6 -14 -6 -23 0 -10 -7 -23 -15 -30 -8 -7 -12 -17 -9 -22 3 -5 14 -2 25 8 15 13 19 14 19 3 0 -8 -20 -29 -44 -47 l-43 -32 -7 -102 c-3 -56 -3 -105 2 -110 12 -12 42 1 42 18 0 8 6 11 18 7 15 -6 15 -4 -2 15 -11 12 -25 22 -33 22 -21 0 -15 38 8 45 29 10 47 -10 32 -34 -13 -20 -8 -31 14 -31 7 0 13 7 13 15 0 8 5 15 10 15 6 0 10 16 10 35 0 19 5 35 10 35 6 0 11 10 11 23 1 12 5 4 8 -18 10 -63 -15 -111 -72 -139 -18 -8 -66 -45 -107 -83 -65 -59 -70 -62 -38 -23 20 25 45 51 56 59 18 13 19 17 6 46 -10 24 -11 42 -4 66 17 57 12 136 -10 179 -13 25 -16 40 -9 40 9 0 10 59 5 233 -8 291 -8 268 -1 295 l5 22 -470 0 -470 0 1 -482z m834 20 c-2 -7 -6 -32 -8 -56 -4 -46 -27 -84 -27 -45 0 11 5 35 11 54 6 19 12 40 15 47 2 6 6 12 8 12 3 0 3 -6 1 -12z m-781 -409 c-8 -14 -21 -11 -21 5 0 8 6 12 14 9 7 -3 10 -9 7 -14z m56 11 c0 -5 -4 -10 -10 -10 -5 0 -10 5 -10 10 0 6 5 10 10 10 6 0 10 -4 10 -10z m1298 -410 c-2 -21 5 -30 22 -30 44 0 14 -72 -40 -96 -20 -9 -33 -8 -60 5 -29 14 -56 46 -33 39 4 -1 19 2 31 6 19 6 22 13 17 33 -7 31 8 51 39 49 14 0 24 -3 24 -6z m15 -136 c3 -4 2 -15 -3 -24 -8 -15 -22 -18 -80 -17 -57 0 -67 3 -58 14 6 8 19 11 30 7 10 -3 25 0 33 6 8 7 15 9 15 6 0 -4 8 -2 18 3 20 12 36 14 45 5z m-310 -400 c11 -11 -3 -24 -18 -18 -8 4 -12 10 -9 15 6 11 18 12 27 3z"/>
 <path d="M1050 2683 c0 -42 3 -41 18 5 9 26 8 32 -4 32 -10 0 -14 -11 -14 -37z"/>
 <path d="M1284 2608 c3 -62 2 -149 -2 -194 -6 -62 -5 -81 5 -81 11 0 30 60 25 80 -1 4 2 26 7 50 6 23 15 78 21 122 5 44 13 92 16 108 6 26 5 27 -36 27 l-42 0 6 -112z"/>
 <path d="M1480 2699 c0 -11 -5 -29 -10 -40 -7 -13 -7 -19 -1 -19 6 0 13 12 17 28 3 15 7 33 10 40 2 6 -1 12 -6 12 -6 0 -10 -9 -10 -21z"/>
 <path d="M1555 2708 c-29 -93 -76 -418 -60 -415 23 4 -19 -141 -49 -168 -8 -7 -9 -61 -5 -185 4 -96 7 -187 8 -202 l1 -27 48 28 c26 15 65 40 86 55 22 14 90 42 151 61 143 45 303 122 338 165 l27 32 0 334 0 334 -270 0 c-208 0 -272 -3 -275 -12z"/>
 <path d="M1460 2604 c0 -8 5 -12 10 -9 6 3 10 10 10 16 0 5 -4 9 -10 9 -5 0 -10 -7 -10 -16z"/>
 <path d="M134 1824 c-1 -13 2 -21 7 -18 11 6 12 31 2 37 -5 3 -9 -6 -9 -19z"/>
 <path d="M92 1790 c0 -14 2 -19 5 -12 2 6 2 18 0 25 -3 6 -5 1 -5 -13z"/>
 <path d="M1365 1160 c-3 -5 -2 -10 4 -10 5 0 13 5 16 10 3 6 2 10 -4 10 -5 0 -13 -4 -16 -10z"/>
 <path d="M1375 966 c-21 -27 -24 -38 -16 -59 14 -36 61 -50 108 -32 24 9 31 14 18 14 -16 1 -13 6 15 23 19 12 37 23 39 25 7 5 -2 10 -29 17 -16 5 -20 4 -12 -2 17 -12 -11 -37 -33 -28 -18 7 -20 32 -2 39 9 4 9 6 -1 6 -7 1 -20 8 -28 16 -22 22 -30 19 -59 -19z"/>
 <path d="M1365 700 c-3 -5 -1 -10 4 -10 6 0 11 5 11 10 0 6 -2 10 -4 10 -3 0 -8 -4 -11 -10z"/>
 </g>
<g id="layer2" fill="#dddddd" stroke="none">
 <path d="M935 2698 c-7 -27 -7 -4 1 -295 5 -174 4 -233 -5 -233 -7 0 -4 -15 9 -40 22 -43 27 -122 10 -179 -7 -24 -6 -42 4 -66 13 -29 12 -33 -6 -46 -11 -8 -36 -34 -56 -59 -32 -39 -27 -36 38 23 41 38 89 75 107 83 57 28 82 76 72 139 -3 22 -7 30 -8 18 0 -13 -5 -23 -11 -23 -5 0 -10 -16 -10 -35 0 -19 -4 -35 -10 -35 -5 0 -10 -7 -10 -15 0 -8 -6 -15 -13 -15 -22 0 -27 11 -14 31 15 24 -3 44 -32 34 -23 -7 -29 -45 -8 -45 8 0 22 -10 33 -22 17 -19 17 -21 2 -15 -12 4 -18 1 -18 -7 0 -17 -30 -30 -42 -18 -5 5 -5 54 -2 110 l7 102 43 32 c24 18 44 39 44 47 0 11 -4 10 -19 -3 -11 -10 -22 -13 -25 -8 -3 5 1 15 9 22 8 7 15 20 15 30 0 9 3 19 6 23 3 3 7 29 9 59 1 29 12 107 23 173 11 66 24 151 28 188 6 63 5 69 -11 65 -10 -1 -24 -19 -31 -38 l-12 -35 -1 38 -1 37 -55 0 c-48 0 -55 -3 -60 -22z"/>
 <path d="M1123 2548 c8 -218 31 -306 100 -392 43 -53 50 -73 31 -84 -14 -8 -12 -14 10 -48 60 -93 110 -156 114 -145 2 7 -5 22 -16 34 -27 30 -62 106 -56 122 3 7 1 22 -4 32 -6 10 -13 45 -17 78 l-8 60 37 -33 c45 -39 51 -39 70 -4 18 33 20 25 5 -34 -10 -38 -8 -57 12 -135 18 -70 21 -94 12 -108 -9 -14 -8 -28 2 -57 15 -41 19 -146 6 -178 -6 -15 -9 -11 -19 21 -26 87 -175 203 -239 187 -25 -7 -25 -8 -18 -73 4 -36 8 -67 10 -69 1 -2 15 -5 31 -8 16 -3 34 -7 39 -8 51 -13 72 -20 83 -29 6 -5 12 -6 12 -2 0 10 90 -44 116 -69 48 -49 81 -132 109 -277 8 -44 17 -85 21 -90 3 -5 3 -9 0 -9 -13 0 -56 78 -56 102 0 14 -7 34 -17 43 -15 15 -17 15 -25 1 -5 -9 -8 -37 -6 -62 2 -38 -1 -48 -17 -58 -11 -6 -39 -23 -63 -38 -23 -15 -48 -25 -56 -22 -18 7 -32 -16 -16 -26 7 -5 10 -18 6 -36 -3 -16 -2 -51 2 -79 7 -41 3 -64 -16 -125 -14 -41 -30 -80 -38 -86 -7 -5 -16 -23 -20 -38 -3 -15 -13 -30 -20 -33 -20 -7 -17 -37 4 -56 14 -13 21 -14 30 -5 7 7 12 8 12 3 0 -5 7 0 16 11 13 16 15 16 10 2 -3 -10 0 -20 6 -24 7 -5 3 -10 -11 -15 -18 -7 -20 -12 -11 -29 10 -19 6 -24 -13 -21 -5 1 -5 -3 -2 -9 4 -6 8 -30 9 -53 2 -36 7 -43 30 -52 38 -13 123 18 172 63 21 20 43 35 47 34 15 -5 47 104 48 162 0 13 -29 17 -37 5 -3 -5 -34 -9 -70 -8 -71 2 -96 17 -73 45 15 19 85 15 137 -7 30 -13 35 -12 47 4 12 17 13 17 17 0 10 -37 8 -180 -2 -233 -6 -30 -15 -93 -20 -138 -5 -46 -13 -89 -18 -95 -6 -7 -11 -19 -13 -28 -7 -30 -114 -116 -155 -123 -21 -4 -56 -17 -78 -28 -28 -14 -76 -24 -152 -31 -105 -10 -116 -9 -180 12 -180 60 -276 127 -306 213 -6 18 -21 45 -32 61 -25 34 -36 122 -25 202 5 33 9 103 9 155 0 89 -1 95 -26 115 -27 22 -46 85 -37 125 23 103 54 161 105 196 32 23 38 32 43 77 3 29 9 79 13 112 11 82 -15 150 -60 159 -17 3 -55 30 -91 65 -34 32 -75 66 -92 75 -16 9 -37 21 -45 26 -33 21 -301 121 -310 115 -5 -3 -6 -13 -3 -23 6 -15 5 -15 -10 -3 -11 9 -17 10 -17 2 0 -6 -7 -11 -15 -11 -8 0 -15 -4 -15 -10 0 -5 5 -10 12 -10 9 0 9 -3 1 -11 -9 -9 -16 -7 -29 5 -16 17 -18 16 -31 -14 -10 -26 -13 -197 -13 -906 l0 -874 1050 0 1050 0 0 1026 0 1026 -27 -32 c-35 -43 -195 -120 -338 -165 -61 -19 -129 -47 -151 -61 -21 -15 -60 -40 -86 -55 l-48 -28 -1 27 c-1 15 -4 106 -8 202 -4 124 -3 178 5 185 30 27 72 172 49 168 -14 -2 7 162 39 314 l24 113 -29 0 c-30 0 -33 -3 -43 -52 -4 -16 -11 -28 -17 -28 -6 0 -6 6 1 19 5 11 10 29 10 40 0 19 -6 21 -59 21 l-58 0 -11 -57 c-13 -69 -34 -207 -38 -244 -4 -52 -15 -86 -27 -86 -10 0 -11 21 -4 91 4 50 6 116 3 146 -3 30 -5 76 -5 103 l-1 47 -82 0 -81 0 6 -172z m357 63 c0 -6 -4 -13 -10 -16 -5 -3 -10 1 -10 9 0 9 5 16 10 16 6 0 10 -4 10 -9z m-1330 -786 c0 -8 -4 -16 -9 -19 -5 -3 -8 5 -7 18 1 25 16 26 16 1z m-53 -47 c-3 -7 -5 -2 -5 12 0 14 2 19 5 13 2 -7 2 -19 0 -25z m1288 -618 c-3 -5 -11 -10 -16 -10 -6 0 -7 5 -4 10 3 6 11 10 16 10 6 0 7 -4 4 -10z m49 -175 c8 -8 21 -15 28 -16 10 0 10 -2 1 -6 -18 -7 -16 -32 2 -39 22 -9 50 16 33 28 -8 6 -4 7 12 2 27 -7 36 -12 29 -17 -2 -2 -20 -13 -39 -25 -28 -17 -31 -22 -15 -23 13 0 6 -5 -18 -14 -47 -18 -94 -4 -108 32 -8 21 -5 32 16 59 29 38 37 41 59 19z m-54 -285 c0 -5 -5 -10 -11 -10 -5 0 -7 5 -4 10 3 6 8 10 11 10 2 0 4 -4 4 -10z"/>
 <path d="M826 2258 c-3 -7 -9 -28 -15 -47 -6 -19 -11 -43 -11 -54 0 -39 23 -1 27 45 2 24 6 49 8 56 2 6 2 12 -1 12 -2 0 -6 -6 -8 -12z"/>
 <path d="M33 1854 c0 -16 13 -19 21 -5 3 5 0 11 -7 14 -8 3 -14 -1 -14 -9z"/>
 <path d="M90 1860 c0 -5 5 -10 10 -10 6 0 10 5 10 10 0 6 -4 10 -10 10 -5 0 -10 -4 -10 -10z"/>
 <path d="M1350 1445 c-6 -7 -8 -24 -5 -38 5 -20 2 -27 -17 -33 -12 -4 -27 -7 -31 -6 -23 7 4 -25 33 -39 27 -13 40 -14 60 -5 54 24 84 96 40 96 -17 0 -24 9 -22 30 1 11 -48 7 -58 -5z"/>
 <path d="M1378 1309 c-10 -5 -18 -7 -18 -3 0 3 -7 1 -15 -6 -8 -6 -23 -9 -33 -6 -11 4 -24 1 -30 -7 -9 -11 1 -14 58 -14 58 -1 72 2 80 17 15 29 -8 39 -42 19z"/>
 <path d="M1086 911 c-3 -5 1 -11 9 -15 15 -6 29 7 18 18 -9 9 -21 8 -27 -3z"/>
 </g>

</svg>